<?xml version="1.0" encoding="utf-8"?>
<!-- Generator: Adobe Illustrator 22.1.0, SVG Export Plug-In . SVG Version: 6.00 Build 0)  -->
<svg version="1.2" baseProfile="tiny" id="Layer_1" xmlns="http://www.w3.org/2000/svg" xmlns:xlink="http://www.w3.org/1999/xlink"
	 x="0px" y="0px" viewBox="0 0 240 60" xml:space="preserve">
<path fill="#FFFFFF" d="M32.4,46.4c-0.6,8.5-6.2,13.5-15.6,13.5C6.3,59.9,0,53.3,0,42.7c0-10.6,6.4-17.1,16.5-17.1
	c9.4,0,15,4.7,15.6,13.2h-10c-0.3-3.3-2.2-5-5.5-5c-4.1,0-6.2,3-6.2,9c0,5.9,2.2,9,6.4,9c3.2,0,5.2-1.9,5.5-5.4H32.4z"/>
<rect x="36.9" y="26.5" fill="#FFFFFF" width="10.6" height="32.5"/>
<polygon fill="#FFFFFF" points="53.9,26.5 64.4,26.5 64.4,50.3 78.6,50.3 78.6,59 53.9,59 "/>
<path fill="#FFFFFF" d="M24.5,8.4c0-0.1-0.2-0.3-0.2-0.3S24,8.3,24,8.4c-0.1,0-0.3-0.2-0.3-0.2s-0.2,0.2-0.2,0.3
	c-0.1,0-0.3-0.1-0.3-0.1s-0.1,0.3-0.1,0.3c-0.1,0-0.3-0.1-0.3-0.1s-0.1,0.3-0.1,0.3c-0.1,0-0.3,0-0.3,0s0,0.3,0,0.3
	c-0.1,0-0.3,0.1-0.3,0.1s0.1,0.3,0.1,0.3c-0.1,0-0.3,0.1-0.3,0.1s0.1,0.2,0.1,0.3c-0.1,0-0.3,0.2-0.3,0.2s0.2,0.2,0.2,0.3
	c0,0.1-0.2,0.3-0.2,0.3s0.2,0.2,0.3,0.2c0,0.1-0.2,0.3-0.2,0.3s0.2,0.1,0.3,0.2c0,0.1-0.1,0.3-0.1,0.3s0.3,0.1,0.3,0.1
	c0,0.1,0,0.3,0,0.3s0.3,0,0.3,0c0,0.1,0,0.3,0,0.3s0.3,0,0.3,0c0,0.1,0.1,0.3,0.1,0.3s0.3-0.1,0.3-0.1c0,0.1,0.2,0.3,0.2,0.3
	s0.2-0.1,0.3-0.2c0,0.1,0.2,0.3,0.2,0.3s0.2-0.2,0.3-0.2c0.1,0,0.3,0.2,0.3,0.2s0.2-0.2,0.2-0.3c0.1,0,0.3,0.1,0.3,0.1
	s0.1-0.3,0.1-0.3c0.1,0,0.3,0.1,0.3,0.1s0.1-0.3,0.1-0.3c0.1,0,0.3,0,0.3,0s0-0.3,0-0.3c0.1,0,0.3-0.1,0.3-0.1s-0.1-0.3-0.1-0.3
	c0.1,0,0.3-0.1,0.3-0.1s-0.1-0.3-0.1-0.3c0.1,0,0.3-0.2,0.3-0.2s-0.2-0.2-0.2-0.3c0.1-0.1,0.2-0.3,0.2-0.3s-0.2-0.2-0.3-0.2
	c0-0.1,0.2-0.3,0.2-0.3s-0.2-0.1-0.3-0.2c0-0.1,0.1-0.3,0.1-0.3s-0.3-0.1-0.3-0.1c0-0.1,0-0.3,0-0.3s-0.3,0-0.3,0c0-0.1,0-0.3,0-0.3
	s-0.3,0-0.3,0c0-0.1-0.1-0.3-0.1-0.3S25,8.5,24.9,8.5c0-0.1-0.2-0.3-0.2-0.3S24.5,8.4,24.5,8.4 M24.6,9c0,0,0.1,0.2,0.1,0.2
	c0.1,0,0.2-0.1,0.2-0.1S25,9.3,25,9.3c0.1,0,0.2,0,0.2,0s0,0.2,0,0.2c0.1,0,0.2,0,0.2,0s0,0.2,0,0.2c0.1,0,0.2,0.1,0.2,0.1
	s-0.1,0.2-0.1,0.2c0.1,0,0.2,0.1,0.2,0.1s-0.1,0.2-0.1,0.2c0,0,0.2,0.2,0.2,0.2s-0.1,0.1-0.2,0.2c0,0.1,0.1,0.1,0.1,0.1l0,0.1
	c0,0-0.1,0.1-0.2,0.1c0,0.1,0.1,0.2,0.1,0.2s-0.2,0.1-0.2,0.1c0,0.1,0,0.2,0,0.2l0,0.1c0,0-0.2,0-0.2,0.1c0,0.1,0,0.2,0,0.2l0,0.1
	h-0.2c0,0.1,0,0.2,0,0.2l0,0.1c0,0-0.2,0-0.2-0.1c0,0.1-0.1,0.2-0.1,0.2s-0.2-0.1-0.2-0.1c0,0.1-0.1,0.1-0.1,0.1l0,0.1
	c0,0-0.1-0.1-0.2-0.1c0,0-0.2,0.2-0.2,0.2s-0.1-0.1-0.2-0.2c-0.1,0-0.2,0.1-0.2,0.1s-0.1-0.1-0.1-0.2c-0.1,0-0.2,0.1-0.2,0.1l-0.1,0
	c0,0-0.1-0.2-0.1-0.2c-0.1,0-0.2,0-0.2,0s0-0.2,0-0.2c-0.1,0-0.2,0-0.2,0s0-0.2,0-0.2c-0.1,0-0.2-0.1-0.2-0.1s0-0.2,0.1-0.2
	c-0.1,0-0.2-0.1-0.2-0.1s0.1-0.2,0.1-0.2c0,0-0.2-0.2-0.2-0.2s0.1-0.1,0.2-0.2c0-0.1-0.1-0.2-0.1-0.2s0.1-0.1,0.2-0.1
	c0-0.1-0.1-0.2-0.1-0.2s0.2-0.1,0.2-0.1c0-0.1-0.1-0.2-0.1-0.2s0.2,0,0.2-0.1c0-0.1,0-0.2,0-0.2l0-0.1c0,0,0.2,0,0.2,0
	c0-0.1,0-0.2,0-0.2s0.2,0,0.2,0c0-0.1,0.1-0.2,0.1-0.2s0.2,0.1,0.2,0.1c0-0.1,0.1-0.2,0.1-0.2S24,9.1,24,9.1c0,0,0.2-0.2,0.2-0.2
	s0.1,0.1,0.2,0.2C24.4,9.1,24.6,9,24.6,9"/>
<path fill="#FFDD00" d="M24,9.1c-0.1,0-0.2-0.1-0.2-0.1s-0.1,0.1-0.1,0.2c-0.1,0-0.2-0.1-0.2-0.1s-0.1,0.2-0.1,0.2
	c-0.1,0-0.2,0-0.2,0s0,0.2,0,0.2c-0.1,0-0.2,0-0.2,0l0,0.1c0,0,0,0.1,0,0.2c-0.1,0-0.2,0.1-0.2,0.1s0,0.2,0.1,0.2
	c-0.1,0-0.2,0.1-0.2,0.1s0.1,0.2,0.1,0.2c-0.1,0-0.2,0.1-0.2,0.1s0.1,0.1,0.1,0.2c0,0-0.2,0.2-0.2,0.2s0.1,0.1,0.2,0.2
	c0,0.1-0.1,0.2-0.1,0.2s0.2,0.1,0.2,0.1c0,0.1-0.1,0.2-0.1,0.2s0.2,0.1,0.2,0.1c0,0.1,0,0.2,0,0.2s0.2,0,0.2,0c0,0.1,0,0.2,0,0.2
	s0.2,0,0.2,0c0,0.1,0.1,0.2,0.1,0.2l0.1,0c0,0,0.1,0,0.2-0.1c0,0.1,0.1,0.2,0.1,0.2s0.2-0.1,0.2-0.1c0,0,0.2,0.2,0.2,0.2
	s0.1-0.1,0.2-0.2c0.1,0,0.2,0.1,0.2,0.1l0-0.1c0,0,0.1-0.1,0.1-0.1c0.1,0,0.2,0.1,0.2,0.1s0.1-0.2,0.1-0.2c0.1,0,0.2,0.1,0.2,0.1
	l0-0.1c0,0,0-0.1,0-0.2h0.2l0-0.1c0,0,0-0.1,0-0.2c0.1,0,0.2-0.1,0.2-0.1l0-0.1c0,0,0-0.1,0-0.2c0.1,0,0.2-0.1,0.2-0.1
	s-0.1-0.2-0.1-0.2c0.1,0,0.2-0.1,0.2-0.1l0-0.1c0,0-0.1-0.1-0.1-0.1c0,0,0.2-0.2,0.2-0.2s-0.1-0.1-0.2-0.2c0-0.1,0.1-0.2,0.1-0.2
	s-0.2-0.1-0.2-0.1c0-0.1,0.1-0.2,0.1-0.2s-0.2-0.1-0.2-0.1c0-0.1,0-0.2,0-0.2s-0.2,0-0.2,0c0-0.1,0-0.2,0-0.2s-0.2,0-0.2,0
	c0-0.1-0.1-0.2-0.1-0.2s-0.2,0.1-0.2,0.1c0-0.1-0.1-0.2-0.1-0.2s-0.2,0.1-0.2,0.1c0,0-0.2-0.2-0.2-0.2S24.1,9,24,9.1"/>
<path fill="#FFFFFF" d="M27.6,2.4c0-0.1-0.2-0.3-0.2-0.3s-0.2,0.2-0.3,0.2c-0.1,0-0.3-0.2-0.3-0.2s-0.2,0.2-0.2,0.3
	c-0.1,0-0.3-0.1-0.3-0.1s-0.1,0.3-0.1,0.3c-0.1,0-0.3-0.1-0.3-0.1s-0.1,0.3-0.1,0.3c-0.1,0-0.3,0-0.3,0s0,0.3,0,0.3
	c-0.1,0-0.3,0.1-0.3,0.1s0.1,0.3,0.1,0.3c-0.1,0-0.3,0.1-0.3,0.1S25,4.1,25,4.1c-0.1,0-0.3,0.2-0.3,0.2s0.2,0.2,0.2,0.3
	c0,0.1-0.2,0.3-0.2,0.3s0.2,0.2,0.3,0.2c0,0.1-0.2,0.3-0.2,0.3s0.2,0.1,0.3,0.2c0,0.1-0.1,0.3-0.1,0.3S25.2,6,25.3,6
	c0,0.1,0,0.3,0,0.3s0.3,0,0.3,0c0,0.1,0,0.3,0,0.3s0.3,0,0.3,0C26,6.7,26.1,7,26.1,7s0.3-0.1,0.3-0.1c0,0.1,0.2,0.3,0.2,0.3
	S26.9,7,26.9,7c0,0.1,0.2,0.3,0.2,0.3s0.2-0.2,0.3-0.2c0.1,0,0.3,0.2,0.3,0.2S27.9,7,27.9,7c0.1,0,0.3,0.1,0.3,0.1s0.1-0.3,0.1-0.3
	c0.1,0,0.3,0.1,0.3,0.1s0.1-0.3,0.1-0.3c0.1,0,0.3,0,0.3,0s0-0.3,0-0.3c0.1,0,0.3-0.1,0.3-0.1s-0.1-0.3-0.1-0.3
	c0.1,0,0.3-0.1,0.3-0.1s-0.1-0.2-0.1-0.3c0.1,0,0.3-0.2,0.3-0.2s-0.2-0.2-0.2-0.3c0-0.1,0.2-0.3,0.2-0.3s-0.2-0.2-0.3-0.2
	c0-0.1,0.2-0.3,0.2-0.3s-0.2-0.1-0.3-0.2c0-0.1,0.1-0.3,0.1-0.3s-0.3-0.1-0.3-0.1c0-0.1,0-0.3,0-0.3S29,3,28.9,3c0-0.1,0-0.3,0-0.3
	s-0.3,0-0.3,0c0-0.1-0.1-0.3-0.1-0.3s-0.3,0.1-0.3,0.1c0-0.1-0.2-0.3-0.2-0.3S27.6,2.4,27.6,2.4 M27.7,3c0,0,0.1,0.2,0.1,0.2
	c0.1,0,0.2-0.1,0.2-0.1s0.1,0.2,0.1,0.2c0.1,0,0.2,0,0.2,0s0,0.2,0,0.2c0.1,0,0.2,0,0.2,0s0,0.2,0,0.2c0.1,0,0.2,0.1,0.2,0.1
	s0,0.2-0.1,0.2c0.1,0,0.2,0.1,0.2,0.1s-0.1,0.2-0.1,0.2c0,0,0.2,0.2,0.2,0.2s-0.1,0.1-0.2,0.2c0,0.1,0.1,0.1,0.1,0.1L29,5
	c0,0-0.1,0.1-0.2,0.1c0,0.1,0.1,0.2,0.1,0.2s-0.2,0.1-0.2,0.1c0,0.1,0,0.2,0,0.2l0,0.1c0,0-0.2,0-0.2,0.1c0,0.1,0,0.2,0,0.2l0,0.1
	c0,0-0.2,0-0.2,0c0,0.1,0,0.2,0,0.2l0,0.1c0,0-0.2,0-0.2,0c0,0.1-0.1,0.2-0.1,0.2s-0.2-0.1-0.2-0.1c0,0.1-0.1,0.1-0.1,0.1l0,0.1
	c0,0-0.1-0.1-0.2-0.1c0,0-0.2,0.2-0.2,0.2S27.1,6.4,27,6.3c-0.1,0-0.2,0.1-0.2,0.1s-0.1-0.2-0.1-0.2c-0.1,0-0.2,0.1-0.2,0.1l-0.1,0
	c0,0-0.1-0.2-0.1-0.2c-0.1,0-0.2,0-0.2,0s0-0.2,0-0.2c-0.1,0-0.2,0-0.2,0s0-0.2,0-0.2c-0.1,0-0.2-0.1-0.2-0.1s0.1-0.2,0.1-0.2
	c-0.1,0-0.2-0.1-0.2-0.1S25.6,5,25.7,5c0,0-0.2-0.2-0.2-0.2s0.1-0.1,0.2-0.2c0-0.1-0.1-0.2-0.1-0.2s0.1-0.1,0.2-0.1
	c0-0.1-0.1-0.2-0.1-0.2S25.7,4,25.8,4c0-0.1-0.1-0.2-0.1-0.2s0.2,0,0.2-0.1c0-0.1,0-0.2,0-0.2l0-0.1c0,0,0.2,0,0.2,0
	c0-0.1,0-0.2,0-0.2s0.2,0,0.2,0c0-0.1,0.1-0.2,0.1-0.2s0.2,0.1,0.2,0.1c0-0.1,0.1-0.2,0.1-0.2s0.1,0.1,0.2,0.1c0,0,0.2-0.2,0.2-0.2
	s0.1,0.1,0.2,0.2C27.5,3.1,27.7,3,27.7,3"/>
<path fill="#FFDD00" d="M27.1,3.1c-0.1,0-0.2-0.1-0.2-0.1s-0.1,0.1-0.1,0.2c-0.1,0-0.2-0.1-0.2-0.1s-0.1,0.2-0.1,0.2
	c-0.1,0-0.2,0-0.2,0s0,0.2,0,0.2c-0.1,0-0.2,0-0.2,0l0,0.1c0,0,0,0.1,0,0.2c-0.1,0-0.2,0.1-0.2,0.1s0,0.2,0.1,0.2
	c-0.1,0-0.2,0.1-0.2,0.1s0.1,0.2,0.1,0.2c0,0-0.2,0.1-0.2,0.1s0.1,0.1,0.1,0.2c0,0-0.2,0.2-0.2,0.2s0.1,0.1,0.2,0.2
	c0,0.1-0.1,0.2-0.1,0.2s0.2,0.1,0.2,0.1c0,0.1-0.1,0.2-0.1,0.2s0.2,0.1,0.2,0.1c0,0.1,0,0.2,0,0.2s0.2,0,0.2,0c0,0.1,0,0.2,0,0.2
	s0.2,0,0.2,0c0,0.1,0.1,0.2,0.1,0.2l0.1,0c0,0,0.1,0,0.2-0.1c0,0.1,0.1,0.2,0.1,0.2S27,6.4,27,6.3c0,0.1,0.2,0.2,0.2,0.2
	s0.1-0.1,0.2-0.2c0,0,0.2,0.1,0.2,0.1l0-0.1c0,0,0.1-0.1,0.1-0.1c0.1,0,0.2,0.1,0.2,0.1S28,6.2,28,6.1c0.1,0,0.2,0,0.2,0l0-0.1
	c0,0,0-0.1,0-0.2c0.1,0,0.2,0,0.2,0l0-0.1c0,0,0-0.1,0-0.2c0.1,0,0.2-0.1,0.2-0.1l0-0.1c0,0,0-0.1,0-0.2c0.1,0,0.2-0.1,0.2-0.1
	s-0.1-0.2-0.1-0.2C28.9,5.1,29,5,29,5l0-0.1c0,0-0.1-0.1-0.1-0.1c0,0,0.2-0.2,0.2-0.2s-0.1-0.1-0.2-0.2c0-0.1,0.1-0.2,0.1-0.2
	s-0.2-0.1-0.2-0.1c0-0.1,0.1-0.2,0.1-0.2s-0.2,0-0.2-0.1c0-0.1,0-0.2,0-0.2s-0.2,0-0.2,0c0-0.1,0-0.2,0-0.2s-0.2,0-0.2,0
	c0-0.1-0.1-0.2-0.1-0.2s-0.2,0.1-0.2,0.1c0-0.1-0.1-0.2-0.1-0.2s-0.2,0.1-0.2,0.1c0,0-0.2-0.2-0.2-0.2S27.2,3,27.1,3.1"/>
<path fill="#FFFFFF" d="M41.3,2.6c0-0.1-0.2-0.3-0.2-0.3s-0.2,0.2-0.3,0.2c-0.1,0-0.3-0.2-0.3-0.2s-0.2,0.2-0.2,0.3
	c-0.1,0-0.3-0.1-0.3-0.1s-0.1,0.3-0.1,0.3c-0.1,0-0.3-0.1-0.3-0.1S39.5,3,39.4,3.1c-0.1,0-0.3,0-0.3,0s0,0.3,0,0.3
	c-0.1,0-0.3,0.1-0.3,0.1s0.1,0.3,0.1,0.3c-0.1,0-0.3,0.1-0.3,0.1s0.1,0.2,0.1,0.3c-0.1,0-0.3,0.2-0.3,0.2s0.2,0.2,0.2,0.3
	c0,0.1-0.2,0.3-0.2,0.3s0.2,0.2,0.3,0.2c0,0.1-0.2,0.3-0.2,0.3s0.2,0.1,0.3,0.2c0,0.1-0.1,0.3-0.1,0.3s0.3,0.1,0.3,0.1
	c0,0.1,0,0.3,0,0.3s0.3,0,0.3,0c0,0.1,0,0.3,0,0.3s0.3,0,0.3,0c0,0.1,0.1,0.3,0.1,0.3s0.3-0.1,0.3-0.1c0,0.1,0.2,0.3,0.2,0.3
	s0.2-0.1,0.3-0.2c0,0.1,0.2,0.3,0.2,0.3s0.2-0.2,0.3-0.2c0.1,0,0.3,0.2,0.3,0.2s0.2-0.2,0.2-0.3c0.1,0,0.3,0.1,0.3,0.1S42,7,42,6.9
	C42.1,7,42.4,7,42.4,7s0.1-0.3,0.1-0.3c0.1,0,0.3,0,0.3,0s0-0.3,0-0.3c0.1,0,0.3-0.1,0.3-0.1S43.1,6,43,5.9c0.1,0,0.3-0.1,0.3-0.1
	s-0.1-0.2-0.1-0.3c0.1,0,0.3-0.2,0.3-0.2S43.3,5,43.3,5c0-0.1,0.2-0.3,0.2-0.3s-0.2-0.2-0.3-0.2c0-0.1,0.2-0.3,0.2-0.3
	S43.2,4,43.1,4c0-0.1,0.1-0.3,0.1-0.3S43,3.6,42.9,3.6c0-0.1,0-0.3,0-0.3s-0.3,0-0.3,0c0-0.1,0-0.3,0-0.3s-0.3,0-0.3,0
	c0-0.1-0.1-0.3-0.1-0.3s-0.3,0.1-0.3,0.1c0-0.1-0.2-0.3-0.2-0.3S41.3,2.5,41.3,2.6 M41.4,3.1c0,0,0.1,0.2,0.1,0.2
	c0.1,0,0.2-0.1,0.2-0.1s0.1,0.2,0.1,0.2c0.1,0,0.2,0,0.2,0s0,0.2,0,0.2c0.1,0,0.2,0,0.2,0s0,0.2,0,0.2C42.4,4,42.5,4,42.5,4
	s0,0.2-0.1,0.2c0.1,0,0.2,0.1,0.2,0.1s-0.1,0.2-0.1,0.2c0,0,0.2,0.2,0.2,0.2s-0.1,0.1-0.2,0.2c0,0.1,0.1,0.1,0.1,0.1l0,0.1
	c0,0-0.1,0.1-0.2,0.1c0,0.1,0.1,0.2,0.1,0.2s-0.2,0.1-0.2,0.1c0,0.1,0,0.2,0,0.2l0,0.1c0,0-0.2,0-0.2,0.1c0,0.1,0,0.2,0,0.2v0.1
	c0,0-0.2,0-0.2,0c0,0.1,0,0.2,0,0.2l0,0.1c0,0-0.2,0-0.2,0c0,0.1-0.1,0.2-0.1,0.2s-0.2-0.1-0.2-0.1c0,0.1-0.1,0.1-0.1,0.1l0,0.1
	c0,0-0.1-0.1-0.2-0.1c0,0-0.2,0.2-0.2,0.2s-0.1-0.1-0.2-0.2c-0.1,0-0.2,0.1-0.2,0.1s-0.1-0.2-0.1-0.2c-0.1,0-0.2,0.1-0.2,0.1l-0.1,0
	c0,0-0.1-0.2-0.1-0.2c-0.1,0-0.2,0-0.2,0s0-0.2,0-0.2c-0.1,0-0.2,0-0.2,0s0-0.2,0-0.2c-0.1,0-0.2-0.1-0.2-0.1s0.1-0.2,0.1-0.2
	c-0.1,0-0.2-0.1-0.2-0.1s0.1-0.2,0.1-0.2c0,0-0.2-0.2-0.2-0.2s0.1-0.1,0.2-0.2c0,0-0.1-0.2-0.1-0.2s0.1-0.1,0.2-0.1
	c0-0.1-0.1-0.2-0.1-0.2s0.2-0.1,0.2-0.1c0-0.1-0.1-0.2-0.1-0.2s0.2,0,0.2-0.1c0-0.1,0-0.2,0-0.2l0-0.1c0,0,0.2,0,0.2,0
	c0-0.1,0-0.2,0-0.2s0.2,0,0.2,0c0-0.1,0.1-0.2,0.1-0.2s0.2,0.1,0.2,0.1c0-0.1,0.1-0.2,0.1-0.2s0.1,0.1,0.2,0.1c0,0,0.2-0.2,0.2-0.2
	s0.1,0.1,0.2,0.2C41.2,3.2,41.4,3.1,41.4,3.1"/>
<path fill="#FFDD00" d="M40.8,3.2c-0.1,0-0.2-0.1-0.2-0.1s-0.1,0.1-0.1,0.2c-0.1,0-0.2-0.1-0.2-0.1s-0.1,0.2-0.1,0.2
	c-0.1,0-0.2,0-0.2,0s0,0.2,0,0.2c-0.1,0-0.2,0-0.2,0l0,0.1c0,0,0,0.1,0,0.2c-0.1,0-0.2,0.1-0.2,0.1s0,0.2,0.1,0.2
	c-0.1,0-0.2,0.1-0.2,0.1s0.1,0.2,0.1,0.2c-0.1,0-0.2,0.1-0.2,0.1s0.1,0.1,0.1,0.2c0,0.1-0.2,0.2-0.2,0.2s0.1,0.1,0.2,0.2
	c0,0.1-0.1,0.2-0.1,0.2s0.2,0.1,0.2,0.1c0,0.1-0.1,0.2-0.1,0.2s0.2,0.1,0.2,0.1c0,0.1,0,0.2,0,0.2s0.2,0,0.2,0c0,0.1,0,0.2,0,0.2
	s0.2,0,0.2,0c0,0.1,0.1,0.2,0.1,0.2l0.1,0c0,0,0.1,0,0.2-0.1c0,0.1,0.1,0.2,0.1,0.2s0.2-0.1,0.2-0.1c0,0.1,0.2,0.2,0.2,0.2
	s0.1-0.1,0.2-0.2c0.1,0,0.2,0.1,0.2,0.1l0-0.1c0,0,0.1-0.1,0.1-0.1c0.1,0,0.2,0.1,0.2,0.1s0.1-0.2,0.1-0.2c0.1,0,0.2,0,0.2,0l0-0.1
	c0,0,0-0.1,0-0.2c0.1,0,0.2,0,0.2,0V6c0,0,0-0.1,0-0.2c0.1,0,0.2-0.1,0.2-0.1l0-0.1c0,0,0-0.1,0-0.2c0.1,0,0.2-0.1,0.2-0.1
	s-0.1-0.2-0.1-0.2c0.1,0,0.2-0.1,0.2-0.1l0-0.1c0,0-0.1-0.1-0.1-0.1c0,0,0.2-0.2,0.2-0.2s-0.1-0.1-0.2-0.2c0-0.1,0.1-0.2,0.1-0.2
	s-0.2-0.1-0.2-0.1c0-0.1,0.1-0.2,0.1-0.2S42.4,4,42.3,4c0-0.1,0-0.2,0-0.2s-0.2,0-0.2,0c0-0.1,0-0.2,0-0.2s-0.2,0-0.2,0
	c0-0.1-0.1-0.2-0.1-0.2s-0.2,0.1-0.2,0.1c0-0.1-0.1-0.2-0.1-0.2s-0.1,0.1-0.2,0.1c0,0-0.2-0.2-0.2-0.2S40.9,3.2,40.8,3.2"/>
<path fill="#FFFFFF" d="M60.8,0.8c0-0.1-0.2-0.3-0.2-0.3s-0.2,0.2-0.3,0.2c-0.1,0-0.3-0.2-0.3-0.2s-0.2,0.2-0.2,0.3
	c-0.1,0-0.3-0.1-0.3-0.1S59.4,1,59.4,1C59.3,1,59,1,59,1S59,1.2,59,1.3c-0.1,0-0.3,0-0.3,0s0,0.3,0,0.3c-0.1,0-0.3,0.1-0.3,0.1
	s0.1,0.3,0.1,0.3c-0.1,0-0.3,0.1-0.3,0.1s0.1,0.3,0.1,0.3c-0.1,0-0.3,0.2-0.3,0.2s0.2,0.2,0.2,0.3c0,0.1-0.2,0.3-0.2,0.3
	s0.2,0.2,0.3,0.2c0,0.1-0.2,0.3-0.2,0.3s0.2,0.1,0.3,0.2c0,0.1-0.1,0.3-0.1,0.3s0.3,0.1,0.3,0.1c0,0.1,0,0.3,0,0.3s0.3,0,0.3,0
	c0,0.1,0,0.3,0,0.3s0.3,0,0.3,0c0,0.1,0.1,0.3,0.1,0.3s0.3-0.1,0.3-0.1c0,0.1,0.2,0.3,0.2,0.3s0.2-0.1,0.3-0.2
	c0,0.1,0.2,0.2,0.2,0.2s0.2-0.2,0.3-0.2c0.1,0,0.3,0.2,0.3,0.2s0.2-0.2,0.2-0.3c0.1,0,0.3,0.1,0.3,0.1s0.1-0.3,0.1-0.3
	c0.1,0,0.3,0.1,0.3,0.1S62,5,62,4.9c0.1,0,0.3,0,0.3,0s0-0.3,0-0.3c0.1,0,0.3-0.1,0.3-0.1s-0.1-0.3-0.1-0.3c0.1,0,0.3-0.1,0.3-0.1
	s-0.1-0.3-0.1-0.3c0.1,0,0.3-0.2,0.3-0.2s-0.2-0.2-0.2-0.3c0-0.1,0.2-0.3,0.2-0.3s-0.2-0.2-0.3-0.2c0-0.1,0.2-0.3,0.2-0.3
	s-0.2-0.1-0.3-0.2c0-0.1,0.1-0.3,0.1-0.3s-0.3-0.1-0.3-0.1c0-0.1,0-0.3,0-0.3s-0.3,0-0.3,0c0-0.1,0-0.3,0-0.3s-0.3,0-0.3,0
	c0-0.1-0.1-0.3-0.1-0.3s-0.3,0.1-0.3,0.1c0-0.1-0.2-0.3-0.2-0.3S60.9,0.7,60.8,0.8 M60.9,1.4c0,0,0.1,0.2,0.1,0.2
	c0.1,0,0.2-0.1,0.2-0.1s0.1,0.2,0.1,0.2c0.1,0,0.2,0,0.2,0s0,0.2,0,0.2c0.1,0,0.2,0,0.2,0s0,0.2,0,0.2c0.1,0,0.2,0.1,0.2,0.1
	S62,2.4,62,2.5c0.1,0,0.2,0.1,0.2,0.1s-0.1,0.2-0.1,0.2c0,0,0.2,0.2,0.2,0.2s-0.1,0.1-0.2,0.2c0,0.1,0.1,0.1,0.1,0.1l0,0.1
	c0,0-0.1,0.1-0.2,0.1c0,0.1,0.1,0.2,0.1,0.2S62,3.8,61.9,3.8C62,3.9,62,4,62,4L62,4c0,0-0.2,0-0.2,0.1c0,0.1,0,0.2,0,0.2l0,0.1
	c0,0-0.2,0-0.2,0c0,0.1,0,0.2,0,0.2l0,0.1c0,0-0.2,0-0.2-0.1c0,0.1-0.1,0.2-0.1,0.2S61,4.7,60.9,4.7c0,0-0.1,0.1-0.1,0.1l0,0.1
	c0,0-0.1-0.1-0.2-0.1c0,0-0.2,0.2-0.2,0.2s-0.1-0.1-0.2-0.2c-0.1,0-0.2,0.1-0.2,0.1s-0.1-0.2-0.1-0.2c-0.1,0-0.2,0-0.2,0l-0.1,0
	c0,0-0.1-0.2-0.1-0.2c-0.1,0-0.2,0-0.2,0s0-0.2,0-0.2c-0.1,0-0.2,0-0.2,0s0-0.2,0-0.2c-0.1,0-0.2-0.1-0.2-0.1s0.1-0.2,0.1-0.2
	c-0.1,0-0.2-0.1-0.2-0.1s0.1-0.2,0.1-0.2c0,0-0.2-0.2-0.2-0.2s0.1-0.1,0.2-0.2c0-0.1-0.1-0.2-0.1-0.2s0.1-0.1,0.2-0.1
	c0-0.1-0.1-0.2-0.1-0.2S59,2.4,59,2.4C59,2.3,59,2.1,59,2.1s0.2,0,0.2-0.1c0-0.1,0-0.2,0-0.2l0-0.1c0,0,0.2,0,0.2,0
	c0-0.1,0.1-0.2,0.1-0.2s0.2,0,0.2,0.1c0-0.1,0.1-0.2,0.1-0.2S60,1.5,60,1.5c0-0.1,0.1-0.2,0.1-0.2s0.1,0.1,0.2,0.1
	c0,0,0.2-0.2,0.2-0.2s0.1,0.1,0.2,0.2C60.8,1.4,60.9,1.4,60.9,1.4"/>
<path fill="#FFDD00" d="M60.4,1.5c-0.1,0-0.2-0.1-0.2-0.1S60.1,1.5,60,1.5c-0.1,0-0.2-0.1-0.2-0.1s-0.1,0.2-0.1,0.2
	c-0.1,0-0.2-0.1-0.2-0.1s0,0.2-0.1,0.2c-0.1,0-0.2,0-0.2,0l0,0.1c0,0,0,0.1,0,0.2c-0.1,0-0.2,0.1-0.2,0.1s0,0.2,0.1,0.2
	c-0.1,0-0.2,0.1-0.2,0.1s0.1,0.2,0.1,0.2c-0.1,0-0.2,0.1-0.2,0.1S58.8,3,58.8,3c0,0-0.2,0.2-0.2,0.2s0.1,0.1,0.2,0.2
	c0,0.1-0.1,0.2-0.1,0.2s0.2,0.1,0.2,0.1c0,0.1-0.1,0.2-0.1,0.2S59.1,4,59.1,4c0,0.1,0,0.2,0,0.2s0.2,0,0.2,0c0,0.1,0,0.2,0,0.2
	s0.2,0,0.2,0c0,0.1,0.1,0.2,0.1,0.2l0.1,0c0,0,0.1,0,0.2-0.1c0,0.1,0.1,0.2,0.1,0.2s0.2-0.1,0.2-0.1c0,0,0.2,0.2,0.2,0.2
	s0.1-0.1,0.2-0.2c0.1,0,0.2,0.1,0.2,0.1l0-0.1c0,0,0.1-0.1,0.1-0.1c0.1,0,0.2,0.1,0.2,0.1s0.1-0.2,0.1-0.2c0.1,0,0.2,0.1,0.2,0.1
	l0-0.1c0,0,0-0.1,0-0.2c0.1,0,0.2,0,0.2,0l0-0.1c0,0,0-0.1,0-0.2C61.8,4.1,62,4,62,4L62,4c0,0,0-0.1,0-0.2c0.1,0,0.2-0.1,0.2-0.1
	s-0.1-0.2-0.1-0.2c0.1,0,0.2-0.1,0.2-0.1l0-0.1c0,0-0.1-0.1-0.1-0.1c0,0,0.2-0.2,0.2-0.2s-0.1-0.1-0.2-0.2c0-0.1,0.1-0.2,0.1-0.2
	S62,2.5,62,2.5c0-0.1,0.1-0.2,0.1-0.2s-0.2-0.1-0.2-0.1c0-0.1,0-0.2,0-0.2s-0.2,0-0.2,0c0-0.1,0-0.2,0-0.2s-0.2,0-0.2,0
	c0-0.1-0.1-0.2-0.1-0.2S61.1,1.5,61,1.6c0-0.1-0.1-0.2-0.1-0.2s-0.2,0.1-0.2,0.1c0,0-0.2-0.2-0.2-0.2S60.4,1.4,60.4,1.5"/>
<path fill="#FFFFFF" d="M79.8,13c0,0-0.2-0.3-0.2-0.3S79.4,13,79.3,13c-0.1,0-0.3-0.2-0.3-0.2s-0.2,0.2-0.2,0.3
	c-0.1,0-0.3-0.1-0.3-0.1s-0.1,0.3-0.1,0.3c-0.1,0-0.3-0.1-0.3-0.1S78,13.5,78,13.6c-0.1,0-0.3,0-0.3,0s0,0.3,0,0.3
	c-0.1,0-0.3,0.1-0.3,0.1s0.1,0.3,0.1,0.3c-0.1,0-0.3,0.1-0.3,0.1s0.1,0.2,0.1,0.3c-0.1,0-0.3,0.2-0.3,0.2s0.2,0.2,0.2,0.3
	c0,0.1-0.2,0.3-0.2,0.3s0.2,0.2,0.3,0.2c0,0.1-0.2,0.3-0.2,0.3s0.2,0.1,0.3,0.2c0,0.1-0.1,0.3-0.1,0.3s0.3,0.1,0.3,0.1
	c0,0.1,0,0.3,0,0.3s0.3,0,0.3,0c0,0.1,0,0.3,0,0.3s0.3,0,0.3,0c0,0.1,0.1,0.3,0.1,0.3s0.3-0.1,0.3-0.1c0,0.1,0.2,0.3,0.2,0.3
	s0.2-0.1,0.3-0.2c0,0.1,0.2,0.3,0.2,0.3s0.2-0.2,0.3-0.2c0.1,0,0.3,0.2,0.3,0.2s0.2-0.2,0.2-0.3c0.1,0,0.3,0.1,0.3,0.1
	s0.1-0.3,0.1-0.3c0.1,0,0.3,0.1,0.3,0.1s0-0.3,0.1-0.3c0.1,0,0.4,0,0.4,0s0-0.3,0-0.3c0.1,0,0.3-0.1,0.3-0.1s-0.1-0.3-0.1-0.3
	c0.1,0,0.3-0.1,0.3-0.1s-0.1-0.2-0.2-0.3c0.1,0,0.3-0.2,0.3-0.2s-0.2-0.2-0.2-0.3c0-0.1,0.2-0.3,0.2-0.3S81.8,15,81.8,15
	c0-0.1,0.2-0.3,0.2-0.3s-0.2-0.1-0.3-0.2c0-0.1,0.1-0.3,0.1-0.3s-0.3-0.1-0.3-0.1c0-0.1,0-0.3,0-0.3s-0.3,0-0.4,0c0-0.1,0-0.3,0-0.3
	s-0.3,0-0.3,0c0-0.1-0.1-0.3-0.1-0.3s-0.3,0.1-0.3,0.1c0-0.1-0.2-0.3-0.2-0.3S79.9,13,79.8,13 M79.9,13.6c0,0,0.1,0.2,0.1,0.2
	c0.1,0,0.2-0.1,0.2-0.1s0.1,0.2,0.1,0.2c0.1,0,0.2,0,0.2,0s0,0.2,0,0.2c0.1,0,0.2,0,0.2,0s0,0.2,0,0.2c0.1,0,0.2,0.1,0.2,0.1
	S81,14.7,81,14.7c0.1,0,0.2,0.1,0.2,0.1s-0.1,0.2-0.1,0.2c0.1,0,0.2,0.2,0.2,0.2s-0.1,0.1-0.2,0.2c0,0.1,0.1,0.1,0.1,0.1l0,0.1
	c0,0-0.1,0.1-0.2,0.1c0,0.1,0.1,0.2,0.1,0.2S81,16,80.9,16.1c0,0.1,0,0.2,0,0.2l0,0.1c0,0-0.2,0-0.2,0.1c0,0.1,0,0.2,0,0.2v0.1
	c0,0-0.2,0-0.2,0c0,0.1,0,0.2,0,0.2l0,0.1c0,0-0.2,0-0.2,0c0,0.1-0.1,0.2-0.1,0.2s-0.2-0.1-0.2-0.1c0,0.1-0.1,0.1-0.1,0.1l0,0.1
	c0,0-0.1-0.1-0.2-0.1c0,0-0.2,0.2-0.2,0.2S79.3,17,79.2,17c-0.1,0-0.2,0.1-0.2,0.1s-0.1-0.2-0.1-0.2c-0.1,0-0.2,0.1-0.2,0.1l-0.1,0
	c0,0-0.1-0.2-0.1-0.2c-0.1,0-0.2,0-0.2,0s0-0.2,0-0.2c-0.1,0-0.2,0-0.2,0s0-0.2,0-0.2c-0.1,0-0.2-0.1-0.2-0.1S77.9,16,78,16
	c-0.1,0-0.2-0.1-0.2-0.1s0.1-0.2,0.1-0.2c0,0-0.2-0.2-0.2-0.2s0.1-0.1,0.2-0.2c0-0.1-0.1-0.2-0.1-0.2s0.1-0.1,0.2-0.1
	c0-0.1-0.1-0.2-0.1-0.2s0.2-0.1,0.2-0.1c0-0.1-0.1-0.2-0.1-0.2s0.2,0,0.2,0c0-0.1,0-0.2,0-0.2l0-0.1c0,0,0.2,0,0.2,0
	c0-0.1,0-0.2,0-0.2s0.2,0,0.2,0c0-0.1,0.1-0.2,0.1-0.2s0.2,0.1,0.2,0.1c0-0.1,0.1-0.2,0.1-0.2s0.1,0.1,0.2,0.1c0,0,0.2-0.2,0.2-0.2
	s0.1,0.1,0.2,0.2C79.8,13.7,79.9,13.6,79.9,13.6"/>
<path fill="#FFDD00" d="M79.4,13.7c-0.1,0-0.2-0.1-0.2-0.1s-0.1,0.1-0.1,0.2c-0.1,0-0.2-0.1-0.2-0.1s-0.1,0.2-0.1,0.2
	c-0.1,0-0.2,0-0.2,0s0,0.2,0,0.2c-0.1,0-0.2,0-0.2,0l0,0.1c0,0,0,0.1,0,0.2c-0.1,0-0.2,0-0.2,0s0,0.2,0.1,0.2
	c-0.1,0-0.2,0.1-0.2,0.1s0.1,0.2,0.1,0.2c0,0-0.2,0.1-0.2,0.1s0.1,0.1,0.1,0.2c0,0-0.2,0.2-0.2,0.2s0.1,0.1,0.2,0.2
	c0,0.1-0.1,0.2-0.1,0.2s0.2,0.1,0.2,0.1c0,0.1-0.1,0.2-0.1,0.2s0.2,0.1,0.2,0.1c0,0.1,0,0.2,0,0.2s0.2,0,0.2,0c0,0.1,0,0.2,0,0.2
	s0.2,0,0.2,0c0,0.1,0.1,0.2,0.1,0.2l0.1,0c0,0,0.1,0,0.2-0.1c0,0.1,0.1,0.2,0.1,0.2s0.2-0.1,0.2-0.1c0,0,0.2,0.2,0.2,0.2
	s0.1-0.1,0.2-0.2c0.1,0,0.2,0.1,0.2,0.1l0-0.1c0,0,0.1-0.1,0.1-0.1c0.1,0,0.2,0.1,0.2,0.1s0.1-0.2,0.1-0.2c0.1,0,0.2,0,0.2,0l0-0.1
	c0,0,0-0.1,0-0.2c0.1,0,0.2,0,0.2,0v-0.1c0,0,0-0.1,0-0.2c0.1,0,0.2-0.1,0.2-0.1l0-0.1c0,0,0-0.1,0-0.2c0.1,0,0.2-0.1,0.2-0.1
	s-0.1-0.2-0.1-0.2c0.1,0,0.2-0.1,0.2-0.1l0-0.1c0,0-0.1-0.1-0.1-0.1c0,0,0.2-0.2,0.2-0.2s-0.1-0.1-0.2-0.2c0-0.1,0.1-0.2,0.1-0.2
	S81,14.8,81,14.7c0-0.1,0.1-0.2,0.1-0.2s-0.2-0.1-0.2-0.1c0-0.1,0-0.2,0-0.2s-0.2,0-0.2,0c0-0.1,0-0.2,0-0.2s-0.2,0-0.2,0
	c0-0.1-0.1-0.2-0.1-0.2s-0.2,0.1-0.2,0.1c0-0.1-0.1-0.2-0.1-0.2s-0.2,0.1-0.2,0.1c0,0-0.2-0.2-0.2-0.2S79.4,13.7,79.4,13.7"/>
<path fill="#FFFFFF" d="M89.2,22.4c0-0.1-0.2-0.3-0.2-0.3s-0.2,0.2-0.3,0.2c-0.1,0-0.3-0.2-0.3-0.2s-0.2,0.2-0.2,0.3
	c-0.1,0-0.3-0.1-0.3-0.1s-0.1,0.2-0.1,0.3c-0.1,0-0.3-0.1-0.3-0.1s-0.1,0.3-0.1,0.3c-0.1,0-0.3,0-0.3,0s0,0.3,0,0.3
	c-0.1,0-0.3,0.1-0.3,0.1s0.1,0.3,0.1,0.3c-0.1,0-0.3,0.1-0.3,0.1s0.1,0.2,0.1,0.3c-0.1,0-0.3,0.2-0.3,0.2s0.2,0.2,0.2,0.3
	c0,0.1-0.2,0.3-0.2,0.3s0.2,0.2,0.3,0.2c0,0.1-0.2,0.3-0.2,0.3s0.2,0.1,0.3,0.2c0,0.1-0.1,0.3-0.1,0.3s0.3,0.1,0.3,0.1
	c0,0.1,0,0.3,0,0.3s0.3,0,0.3,0c0,0.1,0,0.3,0,0.3s0.3,0,0.3,0c0,0.1,0.1,0.3,0.1,0.3s0.3-0.1,0.3-0.1c0,0.1,0.2,0.3,0.2,0.3
	s0.2-0.1,0.3-0.2c0,0.1,0.2,0.3,0.2,0.3s0.2-0.2,0.3-0.2c0.1,0,0.3,0.2,0.3,0.2s0.2-0.2,0.2-0.3c0.1,0,0.3,0.1,0.3,0.1
	s0.1-0.3,0.1-0.3c0.1,0,0.3,0.1,0.3,0.1s0.1-0.3,0.1-0.3c0.1,0,0.3,0,0.3,0s0-0.3,0-0.3c0.1,0,0.3-0.1,0.3-0.1s-0.1-0.3-0.1-0.3
	c0.1,0,0.3-0.1,0.3-0.1s-0.1-0.2-0.1-0.3c0.1,0,0.3-0.2,0.3-0.2s-0.2-0.2-0.2-0.3c0-0.1,0.2-0.3,0.2-0.3s-0.2-0.2-0.3-0.2
	c0-0.1,0.2-0.3,0.2-0.3s-0.2-0.1-0.3-0.2c0-0.1,0.1-0.3,0.1-0.3s-0.3-0.1-0.3-0.1c0-0.1,0-0.3,0-0.3s-0.3,0-0.3,0c0-0.1,0-0.3,0-0.3
	s-0.3,0-0.3,0c0-0.1-0.1-0.3-0.1-0.3s-0.3,0.1-0.3,0.1c0-0.1-0.2-0.3-0.2-0.3S89.2,22.4,89.2,22.4 M89.3,23c0,0,0.1,0.1,0.1,0.2
	c0.1,0,0.2-0.1,0.2-0.1s0.1,0.2,0.1,0.2c0.1,0,0.2,0,0.2,0s0,0.2,0,0.2c0.1,0,0.2,0,0.2,0s0,0.2,0,0.2c0.1,0,0.2,0.1,0.2,0.1
	s-0.1,0.2-0.1,0.2c0.1,0,0.2,0.1,0.2,0.1s-0.1,0.2-0.1,0.2c0,0,0.2,0.2,0.2,0.2s-0.1,0.1-0.2,0.2c0,0,0.1,0.1,0.1,0.1l0,0.1
	c0,0-0.1,0.1-0.2,0.1c0,0.1,0.1,0.2,0.1,0.2s-0.2,0.1-0.2,0.1c0,0.1,0,0.2,0,0.2l0,0.1c0,0-0.2,0-0.2,0.1c0,0.1,0,0.2,0,0.2l0,0.1
	c0,0-0.2,0-0.2,0c0,0.1,0,0.2,0,0.2l0,0.1c0,0-0.2,0-0.2,0c0,0.1-0.1,0.2-0.1,0.2s-0.2-0.1-0.2-0.1c0,0.1-0.1,0.1-0.1,0.1l0,0.1
	c0,0-0.1-0.1-0.2-0.1c-0.1,0-0.2,0.2-0.2,0.2s-0.1-0.1-0.2-0.2c-0.1,0-0.2,0.1-0.2,0.1s-0.1-0.1-0.1-0.2c-0.1,0-0.2,0.1-0.2,0.1
	l-0.1,0c0,0-0.1-0.2-0.1-0.2c-0.1,0-0.2,0-0.2,0s0-0.2,0-0.2c-0.1,0-0.2,0-0.2,0s0-0.2,0-0.2c-0.1,0-0.2-0.1-0.2-0.1
	s0.1-0.2,0.1-0.2c-0.1,0-0.2-0.1-0.2-0.1s0.1-0.2,0.1-0.2c0,0-0.2-0.2-0.2-0.2s0.1-0.1,0.2-0.2c0-0.1-0.1-0.2-0.1-0.2
	s0.1-0.1,0.2-0.1c0-0.1-0.1-0.2-0.1-0.2s0.2-0.1,0.2-0.1c0-0.1-0.1-0.2-0.1-0.2s0.2,0,0.2-0.1c0-0.1,0-0.2,0-0.2l0-0.1
	c0,0,0.2,0,0.2,0c0-0.1,0-0.2,0-0.2s0.2,0,0.2,0c0-0.1,0.1-0.2,0.1-0.2s0.2,0.1,0.2,0.1c0-0.1,0.1-0.2,0.1-0.2s0.1,0.1,0.2,0.1
	c0,0,0.2-0.2,0.2-0.2s0.1,0.1,0.2,0.2C89.1,23.1,89.3,23,89.3,23"/>
<path fill="#FFDD00" d="M88.7,23.1c-0.1,0-0.2-0.1-0.2-0.1s-0.1,0.1-0.1,0.2c-0.1,0-0.2-0.1-0.2-0.1s-0.1,0.2-0.1,0.2
	c-0.1,0-0.2,0-0.2,0s0,0.2,0,0.2c-0.1,0-0.2,0-0.2,0l0,0.1c0,0,0,0.1,0,0.2c-0.1,0-0.2,0.1-0.2,0.1s0,0.2,0.1,0.2
	c-0.1,0-0.2,0.1-0.2,0.1s0.1,0.2,0.1,0.2c0,0-0.2,0.1-0.2,0.1s0.1,0.1,0.1,0.2c0,0-0.2,0.2-0.2,0.2s0.1,0.1,0.2,0.2
	c0,0.1-0.1,0.2-0.1,0.2s0.2,0.1,0.2,0.1c0,0.1-0.1,0.2-0.1,0.2s0.2,0,0.2,0.1c0,0.1,0,0.2,0,0.2s0.2,0,0.2,0c0,0.1,0,0.2,0,0.2
	s0.2,0,0.2,0c0,0.1,0.1,0.2,0.1,0.2l0.1,0c0,0,0.1,0,0.2-0.1c0,0.1,0.1,0.2,0.1,0.2s0.2-0.1,0.2-0.1c0,0,0.2,0.2,0.2,0.2
	s0.1-0.1,0.2-0.2c0.1,0,0.2,0.1,0.2,0.1l0-0.1c0,0,0.1-0.1,0.1-0.1c0.1,0,0.2,0.1,0.2,0.1s0.1-0.2,0.1-0.2c0.1,0,0.2,0,0.2,0l0-0.1
	c0,0,0-0.1,0-0.2c0.1,0,0.2,0,0.2,0l0-0.1c0,0,0-0.1,0-0.2c0.1,0,0.2-0.1,0.2-0.1l0-0.1c0,0,0-0.1,0-0.2c0.1,0,0.2-0.1,0.2-0.1
	s-0.1-0.2-0.1-0.2c0.1,0,0.2-0.1,0.2-0.1l0-0.1c0,0-0.1-0.1-0.1-0.1c0,0,0.2-0.2,0.2-0.2s-0.1-0.1-0.2-0.2c0-0.1,0.1-0.2,0.1-0.2
	s-0.2-0.1-0.2-0.1c0-0.1,0.1-0.2,0.1-0.2s-0.2,0-0.2-0.1c0-0.1,0-0.2,0-0.2s-0.2,0-0.2,0c0-0.1,0-0.2,0-0.2s-0.2,0-0.2,0
	c0-0.1-0.1-0.2-0.1-0.2s-0.2,0.1-0.2,0.1c0-0.1-0.1-0.2-0.1-0.2s-0.2,0.1-0.2,0.1c0-0.1-0.2-0.2-0.2-0.2S88.8,23,88.7,23.1"/>
<path fill="#FFFFFF" d="M42.4,13.3c-0.1-0.1-0.4-0.5-0.4-0.5s-0.4,0.3-0.5,0.4c-0.1-0.1-0.5-0.4-0.5-0.4s-0.3,0.4-0.4,0.5
	c-0.1,0-0.6-0.2-0.6-0.2s-0.2,0.5-0.2,0.6c-0.1,0-0.6-0.1-0.6-0.1s-0.1,0.5-0.1,0.6c-0.1,0-0.6,0-0.6,0s0,0.5,0,0.6
	c-0.1,0-0.6,0.1-0.6,0.1s0.1,0.5,0.1,0.6c-0.1,0.1-0.6,0.3-0.6,0.3s0.2,0.5,0.3,0.6c-0.1,0.1-0.5,0.4-0.5,0.4s0.3,0.4,0.4,0.5
	c-0.1,0.1-0.4,0.5-0.4,0.5s0.4,0.3,0.5,0.4c-0.1,0.1-0.3,0.5-0.3,0.5s0.4,0.2,0.5,0.3c0,0.1-0.2,0.6-0.2,0.6s0.5,0.1,0.6,0.2
	c0,0.1-0.1,0.6-0.1,0.6s0.5,0,0.6,0.1c0,0.1,0.1,0.6,0.1,0.6s0.5-0.1,0.6-0.1c0,0.1,0.2,0.6,0.2,0.6s0.5-0.2,0.6-0.2
	c0.1,0.1,0.3,0.5,0.3,0.5s0.4-0.3,0.5-0.3c0.1,0.1,0.4,0.5,0.4,0.5s0.4-0.3,0.5-0.4c0.1,0.1,0.5,0.4,0.5,0.4s0.3-0.4,0.4-0.5
	c0.1,0.1,0.6,0.2,0.6,0.2s0.2-0.5,0.2-0.6c0.1,0,0.6,0.1,0.6,0.1s0.1-0.5,0.1-0.6c0.1,0,0.6,0,0.6,0s0-0.5,0-0.6
	c0.1,0,0.6-0.1,0.6-0.1s-0.1-0.5-0.1-0.6c0.1-0.1,0.6-0.3,0.6-0.3s-0.2-0.4-0.3-0.6c0.1-0.1,0.5-0.4,0.5-0.4s-0.3-0.4-0.4-0.5
	c0.1-0.1,0.4-0.5,0.4-0.5s-0.4-0.3-0.5-0.4c0.1-0.1,0.3-0.5,0.3-0.5s-0.4-0.2-0.5-0.3c0-0.1,0.2-0.6,0.2-0.6s-0.5-0.1-0.6-0.2
	c0-0.1,0.1-0.6,0.1-0.6s-0.5,0-0.6-0.1c0-0.1-0.1-0.6-0.1-0.6s-0.5,0.1-0.6,0.1c0-0.1-0.2-0.6-0.2-0.6s-0.5,0.2-0.6,0.2
	c-0.1-0.1-0.3-0.5-0.3-0.5S42.5,13.2,42.4,13.3 M44.6,15.1c0,0.1,0,0.5,0,0.5s0.4,0.1,0.5,0.1c0,0.1-0.1,0.5-0.1,0.5
	s0.4,0.2,0.4,0.2c0,0.1-0.2,0.4-0.2,0.4s0.3,0.3,0.4,0.3c-0.1,0.1-0.3,0.4-0.3,0.4s0.2,0.3,0.3,0.4C45.3,18,45,18.2,45,18.2
	s0.2,0.4,0.2,0.4c-0.1,0-0.4,0.2-0.4,0.2s0.1,0.4,0.1,0.5c-0.1,0-0.5,0.1-0.5,0.1s0,0.4,0,0.5c-0.1,0-0.5,0-0.5,0s-0.1,0.4-0.1,0.5
	c-0.1,0-0.5-0.1-0.5-0.1s-0.2,0.4-0.2,0.4c-0.1,0-0.4-0.2-0.4-0.2s-0.2,0.3-0.3,0.4c-0.1-0.1-0.4-0.3-0.4-0.3S41.7,21,41.7,21
	c-0.1-0.1-0.3-0.4-0.3-0.4s-0.3,0.2-0.4,0.3c0-0.1-0.2-0.4-0.2-0.4s-0.4,0.1-0.5,0.2c0-0.1-0.2-0.5-0.2-0.5s-0.4,0-0.5,0.1
	c0-0.1-0.1-0.5-0.1-0.5s-0.4,0-0.5,0c0-0.1,0-0.5,0-0.5s-0.4-0.1-0.5-0.1c0-0.1,0.1-0.5,0.1-0.5s-0.4-0.2-0.4-0.2
	c0-0.1,0.2-0.4,0.2-0.4s-0.3-0.3-0.4-0.3c0.1-0.1,0.3-0.4,0.3-0.4s-0.2-0.3-0.3-0.4c0.1,0,0.4-0.3,0.4-0.3s-0.2-0.4-0.2-0.4
	c0.1,0,0.4-0.2,0.4-0.2s-0.1-0.4-0.1-0.5c0.1,0,0.5-0.1,0.5-0.1s0-0.4,0-0.5c0.1,0,0.5,0,0.5,0s0.1-0.4,0.1-0.5
	c0.1,0,0.5,0.1,0.5,0.1s0.2-0.4,0.2-0.4c0.1,0,0.4,0.2,0.4,0.2s0.2-0.3,0.3-0.4c0.1,0.1,0.4,0.3,0.4,0.3s0.3-0.3,0.4-0.3
	c0.1,0.1,0.3,0.4,0.3,0.4s0.3-0.2,0.4-0.3c0,0.1,0.2,0.4,0.2,0.4s0.4-0.1,0.5-0.2c0,0.1,0.2,0.5,0.2,0.5s0.4,0,0.5-0.1
	c0,0.1,0.1,0.5,0.1,0.5S44.5,15.1,44.6,15.1"/>
<path fill="#FFFFFF" d="M52.1,14.4C52,14.3,51.7,14,51.7,14s-0.4,0.3-0.5,0.4c-0.1-0.1-0.5-0.4-0.5-0.4s-0.3,0.4-0.4,0.5
	c-0.1,0-0.6-0.2-0.6-0.2s-0.2,0.5-0.2,0.6c-0.1,0-0.6-0.1-0.6-0.1s-0.1,0.5-0.1,0.6c-0.1,0-0.6,0-0.6,0s0,0.5,0,0.6
	c-0.1,0-0.6,0.1-0.6,0.1s0.1,0.5,0.1,0.6c-0.1,0.1-0.6,0.3-0.6,0.3s0.2,0.4,0.3,0.6c-0.1,0.1-0.5,0.4-0.5,0.4s0.3,0.4,0.4,0.5
	c-0.1,0.1-0.4,0.5-0.4,0.5s0.4,0.3,0.5,0.4c-0.1,0.1-0.3,0.5-0.3,0.5s0.4,0.2,0.5,0.3c0,0.1-0.2,0.6-0.2,0.6s0.5,0.1,0.6,0.2
	c0,0.1-0.1,0.6-0.1,0.6s0.5,0,0.6,0.1c0,0.1,0.1,0.6,0.1,0.6s0.5-0.1,0.6-0.1c0,0.1,0.2,0.6,0.2,0.6s0.5-0.2,0.6-0.2
	c0.1,0.1,0.3,0.5,0.3,0.5s0.4-0.3,0.5-0.3c0.1,0.1,0.4,0.5,0.4,0.5s0.4-0.3,0.4-0.4c0.1,0.1,0.5,0.4,0.5,0.4s0.3-0.4,0.4-0.5
	c0.1,0.1,0.6,0.2,0.6,0.2s0.2-0.5,0.2-0.6c0.1,0,0.6,0.1,0.6,0.1s0.1-0.5,0.1-0.6c0.1,0,0.6,0,0.6,0s0-0.5,0-0.6
	c0.1,0,0.6-0.1,0.6-0.1s-0.1-0.5-0.1-0.6c0.1-0.1,0.6-0.3,0.6-0.3s-0.2-0.4-0.3-0.6c0.1-0.1,0.5-0.4,0.5-0.4s-0.3-0.4-0.4-0.5
	c0.1-0.1,0.4-0.5,0.4-0.5s-0.4-0.3-0.5-0.4c0.1-0.1,0.3-0.5,0.3-0.5s-0.4-0.2-0.5-0.3c0-0.1,0.2-0.6,0.2-0.6s-0.5-0.1-0.6-0.2
	c0-0.1,0.1-0.6,0.1-0.6s-0.5,0-0.6-0.1c0-0.1-0.1-0.6-0.1-0.6S53.9,15,53.8,15c0-0.1-0.2-0.6-0.2-0.6s-0.5,0.2-0.6,0.2
	c-0.1-0.1-0.3-0.5-0.3-0.5S52.2,14.3,52.1,14.4 M54.3,16.3c0,0.1,0,0.5,0,0.5s0.4,0.1,0.5,0.1c0,0.1-0.1,0.5-0.1,0.5
	s0.3,0.2,0.4,0.2c0,0.1-0.2,0.4-0.2,0.4s0.3,0.3,0.4,0.3c-0.1,0.1-0.3,0.4-0.3,0.4s0.2,0.3,0.3,0.4c-0.1,0.1-0.4,0.3-0.4,0.3
	s0.2,0.4,0.2,0.4c-0.1,0-0.4,0.2-0.4,0.2s0.1,0.4,0.1,0.5c-0.1,0-0.5,0.1-0.5,0.1s0,0.4,0,0.5c-0.1,0-0.5,0-0.5,0s-0.1,0.4-0.1,0.5
	c-0.1,0-0.5-0.1-0.5-0.1s-0.2,0.4-0.2,0.4c-0.1,0-0.4-0.2-0.4-0.2s-0.2,0.3-0.3,0.4c-0.1-0.1-0.4-0.3-0.4-0.3s-0.3,0.3-0.4,0.3
	c-0.1-0.1-0.3-0.4-0.3-0.4s-0.3,0.2-0.4,0.3c0-0.1-0.2-0.4-0.2-0.4s-0.4,0.1-0.5,0.2c0-0.1-0.2-0.5-0.2-0.5s-0.4,0-0.5,0.1
	c0-0.1-0.1-0.5-0.1-0.5s-0.4,0-0.5,0c0-0.1,0-0.5,0-0.5s-0.4-0.1-0.5-0.1c0-0.1,0.1-0.5,0.1-0.5s-0.3-0.2-0.4-0.2
	c0-0.1,0.2-0.4,0.2-0.4s-0.3-0.3-0.4-0.3c0.1-0.1,0.3-0.4,0.3-0.4s-0.2-0.3-0.3-0.4c0.1,0,0.4-0.3,0.4-0.3s-0.2-0.4-0.2-0.4
	c0.1,0,0.4-0.2,0.4-0.2s-0.1-0.4-0.1-0.5c0.1,0,0.5-0.1,0.5-0.1s0-0.4,0-0.5c0.1,0,0.5,0,0.5,0s0.1-0.4,0.1-0.5
	c0.1,0,0.5,0.1,0.5,0.1s0.2-0.4,0.2-0.4c0.1,0,0.4,0.2,0.4,0.2s0.2-0.3,0.3-0.4c0.1,0,0.4,0.3,0.4,0.3s0.3-0.3,0.4-0.3
	c0.1,0.1,0.3,0.4,0.3,0.4s0.3-0.2,0.4-0.2c0,0.1,0.2,0.4,0.2,0.4s0.4-0.1,0.5-0.2c0,0.1,0.2,0.5,0.2,0.5s0.4,0,0.5-0.1
	c0,0.1,0.1,0.5,0.1,0.5S54.2,16.3,54.3,16.3"/>
<path fill="#FFFFFF" d="M64.3,6.3c-0.1-0.1-0.4-0.5-0.4-0.5s-0.4,0.3-0.5,0.4c-0.1-0.1-0.5-0.4-0.5-0.4s-0.3,0.4-0.4,0.5
	c-0.1,0-0.6-0.2-0.6-0.2s-0.2,0.5-0.2,0.6c-0.1,0-0.6-0.1-0.6-0.1S61.1,7.1,61,7.2c-0.1,0-0.6,0-0.6,0s0,0.5,0,0.6
	c-0.1,0-0.6,0.1-0.6,0.1s0.1,0.5,0.1,0.6c-0.1,0.1-0.6,0.3-0.6,0.3s0.2,0.4,0.3,0.6c-0.1,0.1-0.5,0.4-0.5,0.4s0.3,0.4,0.4,0.5
	c-0.1,0.1-0.4,0.5-0.4,0.5s0.4,0.3,0.5,0.4c-0.1,0.1-0.3,0.5-0.3,0.5s0.4,0.2,0.5,0.3c0,0.1-0.2,0.6-0.2,0.6s0.5,0.1,0.6,0.2
	c0,0.1-0.1,0.6-0.1,0.6s0.5,0,0.6,0.1c0,0.1,0.1,0.6,0.1,0.6s0.5-0.1,0.6-0.1c0,0.1,0.2,0.6,0.2,0.6s0.5-0.2,0.6-0.2
	c0.1,0.1,0.3,0.5,0.3,0.5s0.4-0.3,0.5-0.3c0.1,0.1,0.4,0.5,0.4,0.5s0.4-0.3,0.5-0.4c0.1,0.1,0.5,0.4,0.5,0.4s0.3-0.4,0.4-0.5
	c0.1,0.1,0.6,0.2,0.6,0.2s0.2-0.5,0.2-0.6c0.1,0,0.6,0.1,0.6,0.1s0.1-0.5,0.1-0.6c0.1,0,0.6,0,0.6,0s0-0.5,0-0.6
	c0.1,0,0.6-0.1,0.6-0.1s-0.1-0.5-0.1-0.6c0.1-0.1,0.6-0.3,0.6-0.3s-0.2-0.4-0.3-0.6c0.1-0.1,0.5-0.4,0.5-0.4s-0.3-0.4-0.4-0.5
	c0.1-0.1,0.4-0.5,0.4-0.5S68,9.8,67.9,9.7c0.1-0.1,0.3-0.5,0.3-0.5S67.8,9,67.6,8.9c0-0.1,0.2-0.6,0.2-0.6s-0.5-0.1-0.6-0.2
	c0-0.1,0.1-0.6,0.1-0.6s-0.5,0-0.6-0.1c0-0.1-0.1-0.6-0.1-0.6S66.1,6.9,66,6.9c0-0.1-0.2-0.6-0.2-0.6s-0.5,0.2-0.6,0.2
	C65.1,6.4,64.9,6,64.9,6S64.4,6.2,64.3,6.3 M66.5,8.1c0,0.1,0,0.5,0,0.5s0.4,0.1,0.5,0.1c0,0.1-0.1,0.5-0.1,0.5s0.4,0.2,0.4,0.2
	c0,0.1-0.2,0.4-0.2,0.4s0.3,0.3,0.4,0.3c-0.1,0.1-0.3,0.4-0.3,0.4s0.2,0.3,0.3,0.4c-0.1,0.1-0.4,0.3-0.4,0.3s0.2,0.4,0.2,0.4
	c-0.1,0-0.4,0.2-0.4,0.2s0.1,0.4,0.1,0.5c-0.1,0-0.5,0.1-0.5,0.1s0,0.4,0,0.5c-0.1,0-0.5,0-0.5,0s-0.1,0.4-0.1,0.5
	c-0.1,0-0.5-0.1-0.5-0.1s-0.2,0.4-0.2,0.4c-0.1,0-0.4-0.2-0.4-0.2s-0.2,0.3-0.3,0.4c-0.1,0-0.4-0.3-0.4-0.3s-0.3,0.3-0.4,0.3
	c-0.1-0.1-0.3-0.4-0.3-0.4s-0.3,0.2-0.4,0.2c0-0.1-0.2-0.4-0.2-0.4s-0.4,0.1-0.5,0.2c0-0.1-0.2-0.5-0.2-0.5s-0.4,0-0.5,0.1
	c0-0.1-0.1-0.5-0.1-0.5s-0.4,0-0.5,0c0-0.1,0.1-0.5,0.1-0.5s-0.4-0.1-0.5-0.1c0-0.1,0.1-0.5,0.1-0.5s-0.4-0.2-0.4-0.2
	c0-0.1,0.2-0.4,0.2-0.4s-0.3-0.3-0.4-0.3c0.1-0.1,0.3-0.4,0.3-0.4s-0.2-0.3-0.3-0.4c0.1,0,0.4-0.3,0.4-0.3s-0.2-0.4-0.2-0.4
	c0.1,0,0.4-0.2,0.4-0.2s-0.1-0.4-0.1-0.5c0.1,0,0.5-0.1,0.5-0.1s0-0.4,0-0.5c0.1,0,0.5,0,0.5,0s0.1-0.4,0.1-0.5
	c0.1,0,0.5,0.1,0.5,0.1s0.2-0.4,0.2-0.4c0.1,0,0.4,0.2,0.4,0.2s0.2-0.3,0.3-0.4c0.1,0.1,0.4,0.3,0.4,0.3s0.3-0.3,0.4-0.3
	c0.1,0.1,0.3,0.4,0.3,0.4S64.5,7,64.6,7c0,0.1,0.2,0.4,0.2,0.4s0.4-0.1,0.5-0.2c0,0.1,0.2,0.5,0.2,0.5s0.4,0,0.5-0.1
	C66,7.7,66,8.1,66,8.1S66.4,8.1,66.5,8.1"/>
<path fill="#FFFFFF" d="M80.4,18.8c-0.1-0.1-0.4-0.5-0.4-0.5s-0.4,0.3-0.5,0.4c-0.1-0.1-0.5-0.4-0.5-0.4s-0.3,0.4-0.4,0.5
	c-0.1,0-0.6-0.2-0.6-0.2s-0.2,0.5-0.2,0.6c-0.1,0-0.6-0.1-0.6-0.1s-0.1,0.5-0.1,0.6c-0.1,0-0.6,0-0.6,0s0,0.5,0,0.6
	c-0.1,0-0.6,0.1-0.6,0.1s0.1,0.5,0.1,0.6c-0.1,0.1-0.6,0.3-0.6,0.3s0.2,0.4,0.3,0.6c-0.1,0.1-0.5,0.4-0.5,0.4s0.3,0.4,0.4,0.5
	c-0.1,0.1-0.4,0.5-0.4,0.5s0.4,0.3,0.5,0.4c-0.1,0.1-0.3,0.5-0.3,0.5s0.4,0.2,0.5,0.3c0,0.1-0.2,0.6-0.2,0.6s0.5,0.1,0.6,0.2
	c0,0.1-0.1,0.6-0.1,0.6s0.5,0,0.6,0.1c0,0.1,0.1,0.6,0.1,0.6s0.5-0.1,0.6-0.1c0,0.1,0.2,0.6,0.2,0.6s0.5-0.2,0.6-0.2
	c0.1,0.1,0.3,0.5,0.3,0.5s0.4-0.3,0.5-0.3c0.1,0.1,0.4,0.5,0.4,0.5s0.4-0.3,0.5-0.4c0.1,0.1,0.5,0.4,0.5,0.4s0.3-0.4,0.4-0.5
	c0.1,0,0.6,0.2,0.6,0.2s0.2-0.5,0.2-0.6c0.1,0,0.6,0.1,0.6,0.1s0.1-0.5,0.1-0.6c0.1,0,0.6,0,0.6,0s0-0.5,0-0.6
	c0.1,0,0.6-0.1,0.6-0.1s-0.1-0.5-0.1-0.6c0.1-0.1,0.6-0.3,0.6-0.3S84,24.1,83.9,24c0.1-0.1,0.5-0.4,0.5-0.4s-0.3-0.4-0.4-0.5
	c0.1-0.1,0.4-0.5,0.4-0.5s-0.4-0.3-0.5-0.4c0.1-0.1,0.3-0.5,0.3-0.5s-0.4-0.2-0.5-0.3c0-0.1,0.2-0.6,0.2-0.6s-0.5-0.1-0.6-0.2
	c0-0.1,0.1-0.6,0.1-0.6s-0.5,0-0.6-0.1c0-0.1-0.1-0.6-0.1-0.6s-0.5,0.1-0.6,0.1c0-0.1-0.2-0.6-0.2-0.6S81.4,19,81.3,19
	c-0.1-0.1-0.3-0.5-0.3-0.5S80.6,18.8,80.4,18.8 M82.6,20.7c0,0.1,0,0.5,0,0.5s0.4,0.1,0.5,0.1c0,0.1-0.1,0.5-0.1,0.5
	s0.3,0.2,0.4,0.2c0,0.1-0.2,0.4-0.2,0.4s0.3,0.3,0.4,0.3c-0.1,0.1-0.3,0.4-0.3,0.4s0.2,0.3,0.3,0.4c-0.1,0.1-0.4,0.3-0.4,0.3
	s0.2,0.4,0.2,0.4c-0.1,0-0.4,0.2-0.4,0.2s0.1,0.4,0.1,0.5c-0.1,0-0.5,0.1-0.5,0.1s0,0.4,0,0.5c-0.1,0-0.5,0-0.5,0s-0.1,0.4-0.1,0.5
	c-0.1,0-0.5-0.1-0.5-0.1s-0.2,0.4-0.2,0.5c-0.1,0-0.4-0.2-0.4-0.2s-0.2,0.3-0.3,0.4c-0.1,0-0.4-0.3-0.4-0.3s-0.3,0.3-0.4,0.3
	c-0.1-0.1-0.3-0.4-0.3-0.4S79,26.4,79,26.5c0-0.1-0.2-0.4-0.2-0.4s-0.4,0.1-0.5,0.2c0-0.1-0.2-0.5-0.2-0.5s-0.4,0-0.5,0.1
	c0-0.1-0.1-0.5-0.1-0.5s-0.4,0-0.5,0c0-0.1,0-0.5,0-0.5s-0.4-0.1-0.5-0.1c0-0.1,0.1-0.5,0.1-0.5S76.5,24,76.4,24
	c0-0.1,0.2-0.4,0.2-0.4s-0.3-0.3-0.4-0.3c0.1-0.1,0.3-0.4,0.3-0.4s-0.2-0.3-0.3-0.4c0.1-0.1,0.4-0.3,0.4-0.3s-0.2-0.4-0.2-0.4
	c0.1,0,0.4-0.2,0.4-0.2s-0.1-0.4-0.1-0.5c0.1,0,0.5-0.1,0.5-0.1s0-0.4,0-0.5c0.1,0,0.5,0,0.5,0s0.1-0.4,0.1-0.5
	c0.1,0,0.5,0.1,0.5,0.1s0.2-0.4,0.2-0.4c0.1,0,0.5,0.2,0.5,0.2s0.2-0.3,0.3-0.4c0.1,0.1,0.4,0.3,0.4,0.3s0.3-0.3,0.4-0.3
	c0.1,0.1,0.3,0.4,0.3,0.4s0.3-0.2,0.4-0.2c0,0.1,0.3,0.4,0.3,0.4s0.4-0.1,0.5-0.2c0,0.1,0.2,0.5,0.2,0.5s0.4,0,0.5-0.1
	c0,0.1,0.1,0.5,0.1,0.5S82.5,20.7,82.6,20.7"/>
<path fill="#FFFFFF" d="M86.9,28.4c-0.1-0.1-0.4-0.5-0.4-0.5s-0.4,0.3-0.5,0.4c-0.1-0.1-0.5-0.4-0.5-0.4s-0.3,0.4-0.4,0.5
	c-0.1,0-0.6-0.2-0.6-0.2s-0.2,0.5-0.2,0.6c-0.1,0-0.6-0.1-0.6-0.1s-0.1,0.5-0.1,0.6c-0.1,0-0.6,0-0.6,0s0,0.5,0,0.6
	c-0.1,0-0.6,0.1-0.6,0.1s0.1,0.5,0.1,0.6C82.4,30.8,82,31,82,31s0.2,0.5,0.3,0.6c-0.1,0.1-0.5,0.4-0.5,0.4s0.3,0.4,0.4,0.5
	c-0.1,0.1-0.4,0.5-0.4,0.5s0.4,0.3,0.5,0.4c-0.1,0.1-0.3,0.5-0.3,0.5s0.4,0.2,0.5,0.3c0,0.1-0.2,0.6-0.2,0.6s0.5,0.1,0.6,0.2
	c0,0.1-0.1,0.6-0.1,0.6s0.5,0,0.6,0.1c0,0.1,0.1,0.6,0.1,0.6s0.5-0.1,0.6-0.1c0,0.1,0.2,0.6,0.2,0.6s0.5-0.2,0.6-0.2
	c0.1,0.1,0.3,0.5,0.3,0.5s0.4-0.3,0.5-0.3c0.1,0.1,0.4,0.5,0.4,0.5s0.4-0.3,0.5-0.4c0.1,0.1,0.5,0.4,0.5,0.4s0.3-0.4,0.4-0.5
	c0.1,0.1,0.6,0.3,0.6,0.3s0.2-0.5,0.2-0.6c0.1,0,0.6,0.1,0.6,0.1S89,36,89,35.8c0.1,0,0.6,0,0.6,0s0-0.5,0-0.6
	c0.1,0,0.6-0.1,0.6-0.1s-0.1-0.5-0.1-0.6c0.1-0.1,0.6-0.3,0.6-0.3s-0.2-0.4-0.3-0.6c0.1-0.1,0.5-0.4,0.5-0.4s-0.3-0.4-0.4-0.5
	c0.1-0.1,0.4-0.5,0.4-0.5s-0.4-0.3-0.5-0.4c0.1-0.1,0.3-0.5,0.3-0.5s-0.4-0.2-0.5-0.3c0-0.1,0.2-0.6,0.2-0.6s-0.5-0.1-0.6-0.2
	c0-0.1,0.1-0.6,0.1-0.6s-0.5,0-0.6-0.1c0-0.1-0.1-0.6-0.1-0.6S88.7,29,88.6,29c0-0.1-0.2-0.6-0.2-0.6s-0.5,0.2-0.6,0.2
	c-0.1-0.1-0.3-0.5-0.3-0.5S87,28.4,86.9,28.4 M89.1,30.3c0,0.1,0,0.5,0,0.5s0.4,0.1,0.5,0.1c0,0.1-0.1,0.5-0.1,0.5s0.3,0.2,0.4,0.2
	c0,0.1-0.2,0.4-0.2,0.4s0.3,0.3,0.4,0.3c-0.1,0.1-0.3,0.4-0.3,0.4s0.2,0.3,0.3,0.4c-0.1,0.1-0.4,0.3-0.4,0.3s0.2,0.4,0.2,0.4
	c-0.1,0-0.4,0.2-0.4,0.2s0.1,0.4,0.1,0.5c-0.1,0-0.5,0.1-0.5,0.1s0,0.4,0,0.5c-0.1,0-0.5,0-0.5,0s-0.1,0.4-0.1,0.5
	c-0.1,0-0.5-0.1-0.5-0.1s-0.2,0.4-0.2,0.4c-0.1,0-0.4-0.2-0.4-0.2s-0.2,0.3-0.3,0.4c-0.1-0.1-0.4-0.3-0.4-0.3s-0.3,0.3-0.4,0.3
	c-0.1-0.1-0.3-0.4-0.3-0.4s-0.3,0.2-0.4,0.2c0-0.1-0.2-0.4-0.2-0.4s-0.4,0.1-0.5,0.2c0-0.1-0.2-0.5-0.2-0.5s-0.4,0-0.5,0.1
	c0-0.1-0.1-0.5-0.1-0.5s-0.4,0-0.5,0c0-0.1,0-0.5,0-0.5s-0.4-0.1-0.5-0.1c0-0.1,0.1-0.5,0.1-0.5s-0.3-0.2-0.4-0.2
	c0-0.1,0.2-0.4,0.2-0.4s-0.3-0.3-0.4-0.3c0.1-0.1,0.3-0.4,0.3-0.4s-0.2-0.3-0.3-0.4c0.1,0,0.4-0.3,0.4-0.3s-0.2-0.4-0.2-0.4
	c0.1,0,0.4-0.2,0.4-0.2s-0.1-0.4-0.1-0.5c0.1,0,0.5-0.1,0.5-0.1s0-0.4,0-0.5c0.1,0,0.5,0,0.5,0s0.1-0.4,0.1-0.5
	c0.1,0,0.5,0.1,0.5,0.1s0.2-0.4,0.2-0.4c0.1,0,0.4,0.2,0.4,0.2s0.2-0.3,0.3-0.4c0.1,0,0.4,0.3,0.4,0.3s0.3-0.3,0.4-0.3
	c0.1,0.1,0.3,0.4,0.3,0.4s0.3-0.2,0.4-0.3c0,0.1,0.2,0.4,0.2,0.4s0.4-0.1,0.5-0.2c0,0.1,0.2,0.5,0.2,0.5s0.4,0,0.5-0.1
	c0,0.1,0.1,0.5,0.1,0.5S89,30.3,89.1,30.3"/>
<path fill="#FFFFFF" d="M54.7,7.5c-2.8-5-7.1-6-11.3-7.4c1.1,4.3,5.2,7.2,8.7,9.4c1.4,0.9,3.2,2.3,4.4,3.4c-0.9-0.3-1.8-0.6-2.7-0.9
	c-6.9-2.1-13.1-2.4-16.7-2.3c-0.1,0-0.1-0.1-0.1-0.1c0.1-0.1,0.3-0.5,0.3-0.5s-0.4-0.2-0.5-0.3c0-0.1,0.2-0.6,0.2-0.6S36.5,8,36.4,8
	c0-0.1,0.1-0.6,0.1-0.6s-0.5,0-0.6-0.1c0-0.1-0.1-0.6-0.1-0.6s-0.5,0.1-0.6,0.1c0-0.1-0.2-0.6-0.2-0.6s-0.5,0.2-0.6,0.2
	C34.3,6.3,34,5.8,34,5.8s-0.4,0.3-0.5,0.3c-0.1-0.1-0.4-0.5-0.4-0.5S32.7,6,32.6,6.1c-0.1-0.1-0.5-0.4-0.5-0.4s-0.3,0.4-0.4,0.5
	c-0.1,0-0.6-0.2-0.6-0.2S31,6.5,30.9,6.6c-0.1,0-0.6-0.1-0.6-0.1S30.2,7,30.2,7.1c-0.1,0-0.6,0-0.6,0s0,0.5,0,0.6
	c-0.1,0-0.6,0.1-0.6,0.1s0.1,0.5,0.1,0.6c-0.1,0.1-0.6,0.3-0.6,0.3s0.2,0.4,0.3,0.6c-0.1,0.1-0.5,0.4-0.5,0.4s0.3,0.4,0.4,0.5
	c-0.1,0.1-0.4,0.5-0.4,0.5s0.4,0.3,0.5,0.4c-0.1,0.1-0.3,0.5-0.3,0.5s0.4,0.2,0.5,0.3c0,0.1-0.2,0.6-0.2,0.6s0.5,0.1,0.6,0.2
	c0,0.1-0.1,0.6-0.1,0.6s0.5,0,0.6,0.1C30,13.5,30,14,30,14s0.5-0.1,0.6-0.1c0,0.1,0.2,0.6,0.2,0.6s0.5-0.2,0.6-0.2
	c0.1,0.1,0.3,0.5,0.3,0.5s0.4-0.3,0.5-0.3c0.1,0.1,0.4,0.5,0.4,0.5s0.4-0.3,0.5-0.4c0.1,0.1,0.5,0.4,0.5,0.4s0.3-0.4,0.4-0.5
	c0.1,0.1,0.6,0.3,0.6,0.3s0.2-0.5,0.2-0.6c0.1,0,0.6,0.1,0.6,0.1s0.1-0.5,0.1-0.6c0.1,0,0.6,0,0.6,0s0-0.5,0-0.6
	c0.1,0,0.6-0.1,0.6-0.1s-0.1-0.5-0.1-0.6c0.1-0.1,0.6-0.3,0.6-0.3S37,11.5,37,11.4c0,0,0.1-0.1,0.2-0.2c3.6-0.1,9.6,0.2,16.3,2.3
	c4.7,1.4,9.1,3.6,13,6.3c0,0,0,0-0.1,0c-1.8-0.9-6.6-0.8-9.7-0.1c2.2,2,6.1,2.2,8.8,2c0.7-0.1,1.4-0.3,3.8,0.3
	c0.3,0.2,0.5,0.4,0.8,0.6c4.7,4,8.7,9.1,11.8,15.1c-0.8-0.7-1.7-1.5-2.5-2.1c-3.4-2.4-7.2-3.2-11-3.3c1.9,2.9,6.6,4.6,9.3,5.1
	c1.6,0.4,3.8,1.3,5.1,1.9c0.5,1.1,1.1,2.3,1.6,3.5c0,0.1,2.5,5.6,4,8.6c2.2,4.8,2.4,7.5,2.4,7.5l3.9-0.1c0,0-2.7-2.7-4.1-5.7
	c-0.2-0.5-0.6-1.6-0.9-2.2c-1.4-2.9-3.9-8.5-3.9-8.5c-3.2-7.8-7.4-13.7-11.8-18.2c0.1-1.1,0.3-3.8,0.4-5.7c0.2-4.2-2-7.5-4.2-10.6
	c-1.1,3.3,0.7,8.2,1.6,10.5c0.7,1.6,1.3,3.9,1.6,5.2c-5-4.8-10.3-7.9-15.1-9.9C57.4,12.3,55.8,9.5,54.7,7.5"/>
<g>
	<path fill="#FFDD00" d="M45.4,17.2c-0.1-0.1-0.4-0.3-0.4-0.3s0.2-0.3,0.2-0.4c-0.1,0-0.4-0.2-0.4-0.2s0.1-0.4,0.1-0.5
		c-0.1,0-0.5-0.1-0.5-0.1s0-0.4,0-0.5c-0.1,0-0.5,0-0.5,0s0-0.4-0.1-0.5c-0.1,0-0.5,0.1-0.5,0.1s-0.1-0.4-0.2-0.5
		c-0.1,0-0.5,0.2-0.5,0.2s-0.2-0.3-0.2-0.4c-0.1,0-0.4,0.3-0.4,0.3s-0.3-0.3-0.3-0.4h0c-0.1,0.1-0.4,0.3-0.4,0.3s-0.3-0.2-0.4-0.3
		c0,0.1-0.3,0.4-0.3,0.4s-0.4-0.2-0.4-0.2c0,0.1-0.2,0.4-0.2,0.4s-0.4-0.1-0.5-0.1c0,0.1-0.1,0.5-0.1,0.5s-0.4,0-0.5,0
		c0,0.1,0,0.5,0,0.5s-0.4,0.1-0.5,0.1c0,0.1,0.1,0.5,0.1,0.5s-0.4,0.2-0.4,0.2c0,0.1,0.2,0.4,0.2,0.4s-0.3,0.2-0.4,0.3
		c0.1,0.1,0.3,0.4,0.3,0.4s-0.3,0.3-0.3,0.4c0.1,0.1,0.4,0.3,0.4,0.3s-0.2,0.3-0.2,0.4c0.1,0,0.4,0.2,0.4,0.2s-0.1,0.4-0.1,0.5
		c0.1,0,0.5,0.1,0.5,0.1s0,0.4,0,0.5c0.1,0,0.5,0,0.5,0s0,0.4,0.1,0.5c0.1,0,0.5-0.1,0.5-0.1s0.1,0.4,0.2,0.5c0.1,0,0.5-0.2,0.5-0.2
		s0.2,0.3,0.2,0.4c0.1,0,0.4-0.3,0.4-0.3s0.3,0.3,0.3,0.4h0c0.1-0.1,0.4-0.3,0.4-0.3s0.3,0.2,0.4,0.3c0-0.1,0.3-0.4,0.3-0.4
		s0.4,0.2,0.4,0.2c0-0.1,0.2-0.4,0.2-0.4s0.4,0.1,0.5,0.1c0-0.1,0.1-0.5,0.1-0.5s0.4,0,0.5,0c0-0.1,0-0.5,0-0.5s0.4-0.1,0.5-0.1
		c0-0.1-0.1-0.5-0.1-0.5s0.4-0.2,0.4-0.2c0-0.1-0.2-0.4-0.2-0.4s0.3-0.2,0.4-0.3c-0.1-0.1-0.3-0.4-0.3-0.4S45.3,17.3,45.4,17.2
		L45.4,17.2z"/>
</g>
<g>
	<path fill="#FFDD00" d="M55,17.6c-0.1,0-0.4-0.2-0.4-0.2s0.1-0.4,0.1-0.5c-0.1,0-0.5-0.1-0.5-0.1s0-0.4,0-0.5c-0.1,0-0.5,0-0.5,0
		s0-0.4-0.1-0.5c-0.1,0-0.5,0.1-0.5,0.1s-0.1-0.4-0.2-0.5c-0.1,0-0.5,0.2-0.5,0.2s-0.2-0.3-0.2-0.4c-0.1,0-0.4,0.2-0.4,0.2
		S51.7,15,51.7,15h0c-0.1,0.1-0.4,0.3-0.4,0.3S51,15.1,50.9,15c0,0.1-0.3,0.4-0.3,0.4s-0.4-0.2-0.4-0.2c0,0.1-0.2,0.4-0.2,0.4
		s-0.4-0.1-0.5-0.1c0,0.1-0.1,0.5-0.1,0.5s-0.4,0-0.5,0c0,0.1,0,0.5,0,0.5s-0.4,0.1-0.5,0.1c0,0.1,0.1,0.5,0.1,0.5s-0.4,0.2-0.4,0.2
		c0,0.1,0.2,0.4,0.2,0.4S48,18,47.9,18.1c0.1,0.1,0.3,0.4,0.3,0.4s-0.3,0.3-0.3,0.4v0c0.1,0.1,0.4,0.3,0.4,0.3s-0.2,0.3-0.2,0.4
		c0.1,0,0.4,0.2,0.4,0.2s-0.1,0.4-0.1,0.5c0.1,0,0.5,0.1,0.5,0.1s0,0.4,0,0.5c0.1,0,0.5,0,0.5,0s0,0.4,0.1,0.5
		c0.1,0,0.5-0.1,0.5-0.1s0.1,0.4,0.2,0.5c0.1,0,0.5-0.2,0.5-0.2s0.2,0.3,0.2,0.4c0.1,0,0.4-0.3,0.4-0.3s0.3,0.3,0.3,0.4h0
		c0.1-0.1,0.4-0.3,0.4-0.3s0.3,0.2,0.4,0.3c0.1-0.1,0.3-0.4,0.3-0.4s0.4,0.2,0.4,0.2c0-0.1,0.2-0.4,0.2-0.4s0.4,0.1,0.5,0.1
		c0-0.1,0.1-0.5,0.1-0.5s0.4,0,0.5,0c0-0.1,0-0.5,0-0.5s0.4-0.1,0.5-0.1c0-0.1-0.1-0.5-0.1-0.5s0.4-0.2,0.4-0.2
		c0-0.1-0.2-0.4-0.2-0.4s0.3-0.2,0.4-0.3c-0.1-0.1-0.3-0.4-0.3-0.4s0.3-0.3,0.3-0.4C55,18.3,54.7,18,54.7,18S54.9,17.7,55,17.6z"/>
</g>
<g>
	<path fill="#FFDD00" d="M67.2,9.5c-0.1,0-0.4-0.2-0.4-0.2s0.1-0.4,0.1-0.5c-0.1,0-0.5-0.1-0.5-0.1s0-0.4,0-0.5c-0.1,0-0.5,0-0.5,0
		s0-0.4-0.1-0.5c-0.1,0-0.5,0.1-0.5,0.1s-0.1-0.4-0.2-0.5c-0.1,0-0.5,0.2-0.5,0.2S64.7,7,64.6,7c-0.1,0-0.4,0.3-0.4,0.3
		s-0.3-0.3-0.3-0.4c-0.1,0.1-0.4,0.3-0.4,0.3S63.2,7,63.1,6.9c0,0.1-0.3,0.4-0.3,0.4s-0.4-0.2-0.4-0.2c0,0.1-0.2,0.4-0.2,0.4
		s-0.4-0.1-0.5-0.1c0,0.1-0.1,0.5-0.1,0.5s-0.4,0-0.5,0c0,0.1,0,0.5,0,0.5s-0.4,0.1-0.5,0.1c0,0.1,0.1,0.5,0.1,0.5s-0.4,0.2-0.4,0.2
		c0,0.1,0.2,0.4,0.2,0.4s-0.3,0.2-0.4,0.3c0.1,0.1,0.3,0.4,0.3,0.4s-0.3,0.3-0.3,0.4v0c0.1,0.1,0.4,0.3,0.4,0.3s-0.2,0.3-0.2,0.4
		c0.1,0,0.4,0.2,0.4,0.2s-0.1,0.4-0.1,0.5c0.1,0,0.5,0.1,0.5,0.1s0,0.4-0.1,0.5c0.1,0,0.5,0,0.5,0s0,0.4,0.1,0.5
		c0.1,0,0.5-0.1,0.5-0.1s0.1,0.4,0.2,0.5c0.1,0,0.5-0.2,0.5-0.2s0.2,0.3,0.2,0.4c0.1,0,0.4-0.2,0.4-0.2s0.3,0.3,0.3,0.4h0
		c0.1-0.1,0.4-0.3,0.4-0.3s0.3,0.2,0.4,0.3c0-0.1,0.3-0.4,0.3-0.4s0.4,0.2,0.4,0.2c0-0.1,0.2-0.4,0.2-0.4s0.4,0.1,0.5,0.1
		c0-0.1,0.1-0.5,0.1-0.5s0.4,0,0.5,0c0-0.1,0-0.5,0-0.5s0.4-0.1,0.5-0.1c0-0.1-0.1-0.5-0.1-0.5s0.4-0.2,0.4-0.2
		c0-0.1-0.2-0.4-0.2-0.4s0.3-0.2,0.4-0.3c-0.1-0.1-0.3-0.4-0.3-0.4s0.3-0.3,0.3-0.4C67.3,10.2,67,9.9,67,9.9S67.2,9.5,67.2,9.5z"/>
</g>
<g>
	<path fill="#FFDD00" d="M79.2,19.4c-0.1,0.1-0.3,0.4-0.3,0.4s-0.4-0.2-0.5-0.2c0,0.1-0.2,0.4-0.2,0.4S77.9,20,77.8,20
		c0,0.1-0.1,0.5-0.1,0.5s-0.4,0-0.5,0c0,0.1,0,0.5,0,0.5s-0.4,0.1-0.5,0.1c0,0.1,0.1,0.5,0.1,0.5s-0.4,0.2-0.4,0.2
		c0,0.1,0.2,0.4,0.2,0.4s-0.3,0.2-0.4,0.3c0,0.1,0.3,0.4,0.3,0.4s-0.3,0.3-0.3,0.4v0c0.1,0.1,0.4,0.3,0.4,0.3s-0.2,0.3-0.2,0.4
		c0.1,0,0.4,0.2,0.4,0.2s-0.1,0.4-0.1,0.5c0.1,0,0.5,0.1,0.5,0.1s0,0.4,0,0.5c0.1,0,0.5,0,0.5,0s0,0.4,0.1,0.5
		c0.1,0,0.5-0.1,0.5-0.1s0.1,0.4,0.2,0.5c0.1,0,0.5-0.2,0.5-0.2s0.2,0.3,0.2,0.4c0.1,0,0.4-0.2,0.4-0.2s0.3,0.3,0.3,0.4h0
		c0.1-0.1,0.4-0.3,0.4-0.3s0.3,0.2,0.4,0.3c0-0.1,0.3-0.4,0.3-0.4s0.4,0.2,0.4,0.2c0-0.1,0.2-0.5,0.2-0.5s0.4,0.1,0.5,0.1
		c0-0.1,0.1-0.5,0.1-0.5s0.4,0,0.5,0c0-0.1,0-0.5,0-0.5s0.4-0.1,0.5-0.1c0-0.1-0.1-0.5-0.1-0.5s0.4-0.2,0.4-0.2
		c0-0.1-0.2-0.4-0.2-0.4s0.3-0.2,0.4-0.3c-0.1-0.1-0.3-0.4-0.3-0.4s0.3-0.3,0.3-0.4v0c-0.1-0.1-0.4-0.3-0.4-0.3s0.2-0.3,0.2-0.4
		c-0.1,0-0.4-0.2-0.4-0.2s0.1-0.4,0.1-0.5c-0.1,0-0.5-0.1-0.5-0.1s0-0.4,0-0.5c-0.1,0-0.5,0-0.5,0s0-0.4-0.1-0.5
		c-0.1,0-0.5,0.1-0.5,0.1s-0.1-0.4-0.2-0.5c-0.1,0-0.5,0.2-0.5,0.2s-0.2-0.3-0.3-0.4c-0.1,0-0.4,0.2-0.4,0.2s-0.3-0.3-0.3-0.4
		c-0.1,0.1-0.4,0.3-0.4,0.3S79.3,19.5,79.2,19.4z"/>
</g>
<g>
	<path fill="#FFDD00" d="M86.1,29.3c0,0-0.3-0.2-0.4-0.3c0,0.1-0.3,0.4-0.3,0.4s-0.4-0.2-0.4-0.2c0,0.1-0.2,0.4-0.2,0.4
		s-0.4-0.1-0.5-0.1c0,0.1-0.1,0.5-0.1,0.5s-0.4,0-0.5,0c0,0.1,0,0.5,0,0.5s-0.4,0.1-0.5,0.1c0,0.1,0.1,0.5,0.1,0.5s-0.4,0.2-0.4,0.2
		c0,0.1,0.2,0.4,0.2,0.4s-0.3,0.2-0.4,0.3c0,0.1,0.3,0.4,0.3,0.4s-0.3,0.3-0.3,0.4c0.1,0.1,0.4,0.3,0.4,0.3s-0.2,0.3-0.2,0.4
		c0.1,0,0.4,0.2,0.4,0.2s-0.1,0.4-0.1,0.5c0.1,0,0.5,0.1,0.5,0.1s0,0.4,0,0.5c0.1,0,0.5,0,0.5,0s0,0.4,0.1,0.5
		c0.1,0,0.5-0.1,0.5-0.1s0.1,0.4,0.2,0.5c0.1,0,0.5-0.2,0.5-0.2s0.2,0.3,0.2,0.4c0.1,0,0.4-0.2,0.4-0.2s0.3,0.3,0.3,0.4
		c0.1-0.1,0.4-0.3,0.4-0.3s0.3,0.2,0.4,0.3c0-0.1,0.3-0.4,0.3-0.4s0.4,0.2,0.4,0.2c0-0.1,0.2-0.4,0.2-0.4s0.4,0.1,0.5,0.1
		c0-0.1,0.1-0.5,0.1-0.5s0.4,0,0.5,0c0-0.1,0-0.5,0-0.5s0.4-0.1,0.5-0.1c0-0.1-0.1-0.5-0.1-0.5s0.4-0.2,0.4-0.2
		c0-0.1-0.2-0.4-0.2-0.4s0.3-0.2,0.4-0.3c-0.1-0.1-0.3-0.4-0.3-0.4s0.3-0.3,0.3-0.4c-0.1-0.1-0.4-0.3-0.4-0.3s0.2-0.4,0.2-0.4
		c-0.1,0-0.4-0.2-0.4-0.2s0.1-0.4,0.1-0.5c-0.1,0-0.5-0.1-0.5-0.1s0-0.4,0-0.5c-0.1,0-0.5,0-0.5,0s0-0.4-0.1-0.5
		c-0.1,0-0.5,0.1-0.5,0.1s-0.1-0.4-0.2-0.5c-0.1,0-0.5,0.2-0.5,0.2s-0.2-0.3-0.2-0.4c-0.1,0-0.4,0.3-0.4,0.3s-0.3-0.3-0.3-0.4h0
		C86.4,29.1,86.1,29.3,86.1,29.3z"/>
</g>
<g>
	<path fill="#FFDD00" d="M36.5,10.1c-0.1-0.1-0.4-0.3-0.4-0.3s0.2-0.4,0.2-0.4c-0.1,0-0.4-0.2-0.4-0.2s0.1-0.4,0.1-0.5
		c-0.1,0-0.5-0.1-0.5-0.1s0-0.4,0-0.5c-0.1,0-0.5,0-0.5,0s0-0.4-0.1-0.5c-0.1,0-0.5,0.1-0.5,0.1s-0.1-0.4-0.2-0.5
		c-0.1,0-0.5,0.2-0.5,0.2s-0.2-0.3-0.2-0.4c-0.1,0-0.4,0.3-0.4,0.3S33.1,6.8,33,6.7h0c-0.1,0.1-0.4,0.3-0.4,0.3s-0.3-0.2-0.4-0.3
		c0,0.1-0.3,0.4-0.3,0.4S31.6,7,31.5,7c0,0.1-0.2,0.4-0.2,0.4S31,7.3,30.9,7.3c0,0.1-0.1,0.5-0.1,0.5s-0.4,0-0.5,0
		c0,0.1,0,0.5,0,0.5s-0.4,0.1-0.5,0.1c0,0.1,0.1,0.5,0.1,0.5S29.6,9,29.5,9.1c0,0.1,0.2,0.4,0.2,0.4s-0.3,0.2-0.4,0.3
		c0.1,0.1,0.3,0.4,0.3,0.4s-0.3,0.3-0.3,0.4c0.1,0.1,0.4,0.3,0.4,0.3s-0.2,0.3-0.2,0.4c0.1,0,0.4,0.2,0.4,0.2s-0.1,0.4-0.1,0.5
		c0.1,0,0.5,0.1,0.5,0.1s0,0.4,0,0.5c0.1,0,0.5,0,0.5,0s0,0.4,0.1,0.5c0.1,0,0.5-0.1,0.5-0.1s0.1,0.4,0.2,0.5c0.1,0,0.5-0.2,0.5-0.2
		s0.2,0.3,0.2,0.4c0.1,0,0.4-0.3,0.4-0.3s0.3,0.3,0.3,0.4c0.1-0.1,0.4-0.3,0.4-0.3s0.3,0.2,0.4,0.3c0-0.1,0.3-0.4,0.3-0.4
		s0.4,0.2,0.4,0.2c0-0.1,0.2-0.4,0.2-0.4s0.4,0.1,0.5,0.1c0-0.1,0.1-0.5,0.1-0.5s0.4,0,0.5,0c0-0.1,0-0.5,0-0.5s0.4-0.1,0.5-0.1
		c0-0.1-0.1-0.5-0.1-0.5s0.4-0.2,0.4-0.2c0-0.1-0.2-0.4-0.2-0.4s0.3-0.2,0.4-0.3c-0.1-0.1-0.3-0.4-0.3-0.4S36.4,10.2,36.5,10.1
		L36.5,10.1z"/>
</g>
<path fill="#FFFFFF" d="M28.6,14.3c0-0.1-0.2-0.3-0.2-0.3s-0.2,0.2-0.3,0.2c-0.1,0-0.3-0.2-0.3-0.2s-0.2,0.2-0.2,0.3
	c-0.1,0-0.3-0.1-0.3-0.1s-0.1,0.3-0.1,0.3c-0.1,0-0.3-0.1-0.3-0.1s-0.1,0.3-0.1,0.3c-0.1,0-0.3,0-0.3,0s0,0.3,0,0.3
	c-0.1,0-0.3,0.1-0.3,0.1s0.1,0.3,0.1,0.3c-0.1,0-0.3,0.1-0.3,0.1S26,16,26,16.1c-0.1,0-0.3,0.2-0.3,0.2s0.2,0.2,0.2,0.3
	c0,0.1-0.2,0.3-0.2,0.3S25.9,17,26,17c0,0.1-0.2,0.3-0.2,0.3s0.2,0.1,0.3,0.2c0,0.1-0.1,0.3-0.1,0.3s0.3,0.1,0.3,0.1
	c0,0.1,0,0.3,0,0.3s0.3,0,0.3,0c0,0.1,0,0.3,0,0.3s0.3,0,0.3,0c0,0.1,0.1,0.3,0.1,0.3s0.3-0.1,0.3-0.1c0,0.1,0.2,0.3,0.2,0.3
	s0.2-0.1,0.3-0.2c0,0.1,0.2,0.3,0.2,0.3s0.2-0.2,0.3-0.2c0.1,0,0.3,0.2,0.3,0.2s0.2-0.2,0.2-0.3c0.1,0,0.3,0.1,0.3,0.1
	s0.1-0.3,0.1-0.3c0.1,0,0.3,0.1,0.3,0.1s0.1-0.3,0.1-0.3c0.1,0,0.3,0,0.3,0s0-0.3,0-0.3c0.1,0,0.3-0.1,0.3-0.1s-0.1-0.3-0.1-0.3
	c0.1,0,0.3-0.1,0.3-0.1s-0.1-0.2-0.1-0.3c0.1,0,0.3-0.2,0.3-0.2s-0.2-0.2-0.2-0.3c0-0.1,0.2-0.3,0.2-0.3s-0.2-0.2-0.3-0.2
	c0-0.1,0.2-0.3,0.2-0.3s-0.2-0.1-0.3-0.2c0-0.1,0.1-0.3,0.1-0.3s-0.3-0.1-0.3-0.1c0-0.1,0-0.3,0-0.3s-0.3,0-0.3,0c0-0.1,0-0.3,0-0.3
	s-0.3,0-0.3,0c0-0.1-0.1-0.3-0.1-0.3s-0.3,0.1-0.3,0.1c0-0.1-0.2-0.3-0.2-0.3S28.7,14.3,28.6,14.3 M28.7,14.9c0,0,0.1,0.1,0.1,0.2
	c0.1,0,0.2-0.1,0.2-0.1s0.1,0.2,0.1,0.2c0.1,0,0.2,0,0.2,0s0,0.2,0,0.2c0.1,0,0.2,0,0.2,0s0,0.2,0,0.2c0.1,0,0.2,0.1,0.2,0.1
	S29.8,16,29.8,16c0.1,0,0.2,0.1,0.2,0.1s-0.1,0.2-0.1,0.2c0.1,0,0.2,0.2,0.2,0.2s-0.1,0.1-0.2,0.2c0,0.1,0.1,0.1,0.1,0.1l0,0.1
	c0,0-0.1,0.1-0.2,0.1c0,0.1,0.1,0.2,0.1,0.2s-0.2,0.1-0.2,0.1c0,0.1,0,0.2,0,0.2l0,0.1c0,0-0.2,0-0.2,0.1c0,0.1,0,0.2,0,0.2v0.1
	c0,0-0.2,0-0.2,0c0,0.1,0,0.2,0,0.2l0,0.1c0,0-0.2,0-0.2,0c0,0.1-0.1,0.2-0.1,0.2s-0.2-0.1-0.2-0.1c0,0.1-0.1,0.1-0.1,0.1l0,0.1
	c0,0-0.1-0.1-0.2-0.1c0,0-0.2,0.2-0.2,0.2s-0.1-0.1-0.2-0.2c-0.1,0-0.2,0.1-0.2,0.1s-0.1-0.2-0.1-0.2c-0.1,0-0.2,0.1-0.2,0.1l-0.1,0
	c0,0-0.1-0.2-0.1-0.2c-0.1,0-0.2,0-0.2,0s0-0.2,0-0.2c-0.1,0-0.2,0-0.2,0s0-0.2,0-0.2c-0.1,0-0.2-0.1-0.2-0.1s0.1-0.2,0.1-0.2
	c-0.1,0-0.2-0.1-0.2-0.1s0.1-0.2,0.1-0.2c0,0-0.2-0.2-0.2-0.2s0.1-0.1,0.2-0.2c0-0.1-0.1-0.2-0.1-0.2s0.1-0.1,0.2-0.1
	c0-0.1-0.1-0.2-0.1-0.2s0.2-0.1,0.2-0.1c0-0.1-0.1-0.2-0.1-0.2s0.2,0,0.2,0c0-0.1,0-0.2,0-0.2l0-0.1c0,0,0.2,0,0.2,0
	c0-0.1,0-0.2,0-0.2s0.2,0,0.2,0c0-0.1,0.1-0.2,0.1-0.2s0.2,0.1,0.2,0.1c0-0.1,0.1-0.2,0.1-0.2s0.1,0.1,0.2,0.1c0,0,0.2-0.2,0.2-0.2
	s0.1,0.1,0.2,0.2C28.6,15,28.7,14.9,28.7,14.9"/>
<path fill="#FFDD00" d="M28.2,15c-0.1,0-0.2-0.1-0.2-0.1s-0.1,0.1-0.1,0.2c-0.1,0-0.2-0.1-0.2-0.1s-0.1,0.2-0.1,0.2
	c-0.1,0-0.2,0-0.2,0s0,0.2,0,0.2c-0.1,0-0.2,0-0.2,0l0,0.1c0,0,0,0.1,0,0.2c-0.1,0-0.2,0-0.2,0s0,0.2,0.1,0.2
	c-0.1,0-0.2,0.1-0.2,0.1s0.1,0.2,0.1,0.2c0,0-0.2,0.1-0.2,0.1s0.1,0.1,0.1,0.2c0,0.1-0.2,0.2-0.2,0.2s0.1,0.1,0.2,0.2
	c0,0.1-0.1,0.2-0.1,0.2s0.2,0.1,0.2,0.1c0,0.1-0.1,0.2-0.1,0.2s0.2,0,0.2,0.1c0,0.1,0,0.2,0,0.2s0.2,0,0.2,0c0,0.1,0,0.2,0,0.2
	s0.2,0,0.2,0c0,0.1,0.1,0.2,0.1,0.2l0.1,0c0,0,0.1,0,0.2-0.1c0,0.1,0.1,0.2,0.1,0.2s0.2-0.1,0.2-0.1c0,0,0.2,0.2,0.2,0.2
	s0.1-0.1,0.2-0.2c0.1,0,0.2,0.1,0.2,0.1l0-0.1c0,0,0.1-0.1,0.1-0.1c0.1,0,0.2,0.1,0.2,0.1s0.1-0.2,0.1-0.2c0.1,0,0.2,0,0.2,0l0-0.1
	c0,0,0-0.1,0-0.2c0.1,0,0.2,0,0.2,0v-0.1c0,0,0-0.1,0-0.2c0.1,0,0.2-0.1,0.2-0.1l0-0.1c0,0,0-0.1,0-0.2c0.1,0,0.2-0.1,0.2-0.1
	s-0.1-0.2-0.1-0.2c0.1,0,0.2-0.1,0.2-0.1l0-0.1c0,0-0.1-0.1-0.1-0.1c0,0,0.2-0.2,0.2-0.2s-0.1-0.1-0.2-0.2c0-0.1,0.1-0.2,0.1-0.2
	s-0.2-0.1-0.2-0.1c0-0.1,0.1-0.2,0.1-0.2s-0.2-0.1-0.2-0.1c0-0.1,0-0.2,0-0.2s-0.2,0-0.2,0c0-0.1,0-0.2,0-0.2s-0.2,0-0.2,0
	c0-0.1-0.1-0.2-0.1-0.2s-0.2,0.1-0.2,0.1c0-0.1-0.1-0.2-0.1-0.2S28.6,15,28.5,15c0,0-0.2-0.2-0.2-0.2S28.2,15,28.2,15"/>
<path fill="#FFFFFF" d="M115.7,31.1c-0.2-1.6-1.5-2.6-3.1-2.6c-2.8,0-4,2.5-4,4.9c0,2.4,1.2,4.9,4,4.9c1.8,0,2.9-1.2,3.4-2.8
	l2.4,1.1c-1.1,2.8-3,4.2-5.8,4.2c-4.5,0-6.7-3.4-6.7-7.4c0-4,2.5-7.4,6.7-7.4c2.8,0,5,1.5,5.6,4.4L115.7,31.1z"/>
<path fill="#FFFFFF" d="M123.6,26.4h3.1l4.7,14.1h-2.8l-0.8-2.7h-5.3l-0.8,2.7h-2.8L123.6,26.4z M125.1,29L125.1,29l-2,6.4h3.9
	L125.1,29z"/>
<path fill="#FFFFFF" d="M132.9,26.4h5.9c3,0,4.7,1.8,4.7,4.2c0,3.2-2.1,3.9-2.8,4.1l3.1,5.7h-3.1l-2.7-5.2h-2.5v5.2h-2.6V26.4z
	 M135.5,32.9h2.9c1.3,0,2.3-0.8,2.3-2.1c0-1.3-0.9-2.1-2.7-2.1h-2.5V32.9z"/>
<path fill="#FFFFFF" d="M149,26.4h3.1l4.7,14.1H154l-0.8-2.7h-5.3l-0.8,2.7h-2.8L149,26.4z M150.6,29L150.6,29l-2,6.4h3.9L150.6,29z
	"/>
<polygon fill="#FFFFFF" points="156.3,26.4 159.1,26.4 162.2,37.6 162.2,37.6 165.3,26.4 168.1,26.4 164,40.4 160.4,40.4 "/>
<path fill="#FFFFFF" d="M172.3,26.4h3.1l4.7,14.1h-2.8l-0.8-2.7h-5.3l-0.8,2.7h-2.8L172.3,26.4z M173.9,29L173.9,29l-2,6.4h3.9
	L173.9,29z"/>
<polygon fill="#FFFFFF" points="181.8,26.4 184.2,26.4 190.1,36.4 190.1,36.4 190.1,26.4 192.5,26.4 192.5,40.4 190.1,40.4 
	184.2,30.4 184.2,30.4 184.2,40.4 181.8,40.4 "/>
<path fill="#FFFFFF" d="M204.7,26.4h3.1l4.7,14.1h-2.8l-0.8-2.7h-5.3l-0.8,2.7H200L204.7,26.4z M206.2,29L206.2,29l-2,6.4h3.9
	L206.2,29z"/>
<polygon fill="#FFFFFF" points="214.1,26.4 216.6,26.4 222.5,36.4 222.5,36.4 222.5,26.4 224.9,26.4 224.9,40.4 222.5,40.4 
	216.6,30.4 216.5,30.4 216.5,40.4 214.1,40.4 "/>
<path fill="#FFFFFF" d="M227.9,26.4h4.9c4.9,0,6.9,3,6.9,7c0,4.6-2.2,7-6.4,7h-5.4V26.4z M230.5,38h2.4c2.6,0,4-0.9,4-4.6
	c0-2.8-1.2-4.6-4.1-4.6h-2.3V38z"/>
<path fill="#FFFFFF" d="M106.3,44.9h5.9c3,0,4.7,1.8,4.7,4.2c0,3.2-2.1,3.9-2.8,4.1l3.1,5.7h-3.1l-2.7-5.2H109V59h-2.6V44.9z
	 M109,51.5h2.9c1.3,0,2.3-0.8,2.3-2.1c0-1.3-0.9-2.1-2.7-2.1H109V51.5z"/>
<polygon fill="#FFFFFF" points="117.1,44.9 119.9,44.9 123,56.2 123,56.2 126.1,44.9 128.9,44.9 124.8,59 121.2,59 "/>
<rect x="135" y="44.9" fill="#FFFFFF" width="2.6" height="14.1"/>
<polygon fill="#FFFFFF" points="140.1,44.9 142.5,44.9 148.4,54.9 148.5,54.9 148.5,44.9 150.9,44.9 150.9,59 148.4,59 142.5,49 
	142.5,49 142.5,59 140.1,59 "/>
<path fill="#FFFFFF" d="M154.1,54.8c1,1.5,2.5,2.1,4.2,2.1c1.3,0,3-0.4,3-1.8c0-1.1-1-1.4-2.9-1.9l-1.6-0.4
	c-2.3-0.5-4.2-1.3-4.2-3.9c0-3,2.8-4.4,5.4-4.4c2.4,0,4.4,0.9,5.9,2.8l-2.2,1.7c-0.7-1.3-2-2-3.7-2c-1.5,0-2.7,0.6-2.7,1.6
	c0,1.2,1.3,1.4,2.9,1.8l1.7,0.4c2.1,0.5,4.1,1.3,4.1,4c0,3.4-3.2,4.6-6.2,4.6c-2.3,0-4.7-1-6.1-3L154.1,54.8z"/>
<path fill="#FFFFFF" d="M176.9,54.7c0,2.9-2.3,4.7-5.7,4.7c-3.4,0-5.7-1.8-5.7-4.7v-9.7h2.6v9c0,1.7,0.7,2.8,3,2.8
	c2.3,0,3-1.1,3-2.8v-9h2.6V54.7z"/>
<path fill="#FFFFFF" d="M179.1,44.9h5.9c3,0,4.7,1.8,4.7,4.2c0,3.2-2.1,3.9-2.8,4.1l3.1,5.7H187l-2.7-5.2h-2.5V59h-2.6V44.9z
	 M181.7,51.5h2.9c1.3,0,2.3-0.8,2.3-2.1c0-1.3-0.9-2.1-2.7-2.1h-2.5V51.5z"/>
<path fill="#FFFFFF" d="M194.6,44.9h3.1l4.7,14.1h-2.8l-0.8-2.7h-5.3l-0.8,2.7h-2.8L194.6,44.9z M196.1,47.5L196.1,47.5l-2,6.4h3.9
	L196.1,47.5z"/>
<polygon fill="#FFFFFF" points="203.3,44.9 205.7,44.9 211.6,54.9 211.7,54.9 211.7,44.9 214.1,44.9 214.1,59 211.7,59 205.8,49 
	205.7,49 205.7,59 203.3,59 "/>
<path fill="#FFFFFF" d="M225.7,49.7c-0.2-1.6-1.5-2.6-3.1-2.6c-2.8,0-4,2.5-4,4.9c0,2.4,1.2,4.9,4,4.9c1.8,0,2.9-1.2,3.4-2.8
	l2.4,1.1c-1.1,2.8-3,4.2-5.8,4.2c-4.5,0-6.7-3.4-6.7-7.4c0-4,2.5-7.4,6.7-7.4c2.8,0,5,1.5,5.6,4.4L225.7,49.7z"/>
<polygon fill="#FFFFFF" points="229.5,44.9 239.5,44.9 239.5,47.4 232.2,47.4 232.2,50.6 238.9,50.6 238.9,52.9 232.2,52.9 
	232.2,56.5 240,56.5 240,59 229.5,59 "/>
<path fill="#FFFFFF" d="M80.7,57.7h-0.5v-0.3h1.4v0.3h-0.5v1.4h-0.4V57.7z M83.4,57.8L83.4,57.8l-0.5,1.3h-0.3l-0.5-1.3h0v1.3h-0.4
	v-1.7h0.5l0.4,1.1l0.4-1.1h0.5v1.7h-0.4V57.8z"/>
</svg>
